<?xml version="1.0" encoding="utf-8"?>
<!-- Generator: Adobe Illustrator 23.0.3, SVG Export Plug-In . SVG Version: 6.00 Build 0)  -->
<svg version="1.1" id="Layer_1" xmlns="http://www.w3.org/2000/svg" xmlns:xlink="http://www.w3.org/1999/xlink" x="0px" y="0px"
	 viewBox="0 0 792 612" style="enable-background:new 0 0 792 612;" xml:space="preserve">
<style type="text/css">
	.st0{fill:#FFFFFF;}
	.st1{fill:#00E77F;}
	.st2{fill:#1A1A1A;}
	.st3{fill:#FEFEFE;}
	.st4{fill:#FFC4C0;}
	.st5{fill:#FFCE26;}
</style>
<g>
	<path class="st0" d="M508.19,344.17h-52.08c-1.52,0-2.74-1.23-2.74-2.74v-23.54c0-1.52,1.23-2.74,2.74-2.74h52.08
		c1.52,0,2.74,1.23,2.74,2.74v23.54C510.93,342.94,509.71,344.17,508.19,344.17z"/>
	<g>
		<path class="st1" d="M373.3,310.31H197.37c-2.95,0-5.37-2.41-5.37-5.37V129.27c0-2.95,2.41-5.37,5.37-5.37H373.3
			c2.95,0,5.36,2.41,5.36,5.36v175.68C378.66,307.89,376.25,310.31,373.3,310.31z"/>
		<path class="st2" d="M473.82,211.35c0,0-17.87,2.72-37.74,1.98c-19.77-0.73-38.79-2.56-57.1-6.38
			c-18.31-3.82-38.32-8.77-46.93-11.66c-8.61-2.89-15.34-5.41-15.34-5.41l-38.2-0.27c0,0-26.33,2.36-40.96,14.73
			c-14.63,12.36-17.33,20.24-20.48,43.63c-3.15,23.39-4.87,81.52-4.87,81.52s3.94,1.8,6.29,1.8c2.34,0,134.12,0,134.12,0
			c0-31.87-2.45-77.83-2.45-77.83s21.06,4.2,45.88,5.52c24.82,1.32,33.65,1.23,49.15-1.11c16.06-2.43,32.1-6.2,32.1-6.2
			s3.74,1.11,3.74-17.52C481.02,212.86,473.82,211.35,473.82,211.35z"/>
		<path class="st1" d="M608.95,274.37h-96.87c-3.66,0-6.66-3-6.66-6.66v-59.52c0-3.66,3-6.66,6.66-6.66h96.87
			c3.66,0,6.66,3,6.66,6.66v59.52C615.61,271.37,612.61,274.37,608.95,274.37z"/>
		<path class="st0" d="M560.84,222.88c-1.88-3.21-4.95-3.21-6.83,0l-14.43,24.72c-1.88,3.22-0.37,5.85,3.36,5.85h29
			c3.73,0,5.24-2.63,3.36-5.85L560.84,222.88z"/>
		<path class="st3" d="M286,181.69l1.37-18.03c0,0-10.06,2.77-11.07-5.68s6.91-12.25,13.37-7.45c0,0,5.1-5.04,5.08-13.04
			c0,0,12.93-4.04,26.07,2.3l-0.16,27.93c0,0,0.75,10.14-9.11,10.96l-0.02,3.4l5.18,7.79l-0.2,28.51l-1.18-1.43
			c0,0,1.72,17.46,2.27,24.54c0.55,7.08,3.34,50.95,3.34,50.95s-10.25-30.34-12.44-36.77c-2.19-6.43-12.43-36.35-12.43-36.35
			l-2.4,3.95l-15.15-33.67L286,181.69z"/>
		<path class="st4" d="M497.16,213.6c0,0,8.29,5.75,13.75,2.88c5.46-2.87-4.21-9.88-6.19-11.15c-1.98-1.27-7.56-4.15-7.56-4.15
			s-5.19-0.32-8.98,3.97c-3.79,4.29-10.52,12.69-15.75,12.73c0,0-0.08,3.16,0,12.46c0.08,9.3,1.69,10.28,1.69,10.28l23.38,1.22
			L497.16,213.6z"/>
		<path class="st3" d="M579.97,323.69c0,0,2.92,11.49,13.81,20.16c0,0,2.71-2.47,7.08-0.68c4.36,1.78,5.02,6.31,3.91,9.11
			c-1.11,2.8-3.98,4.93-8.55,4.27c0,0-3.94,6.84,2.74,11.11l-16.74,2.37l0.17-4.41c0,0-12.63-3.45-13.88-7.79
			c-1.25-4.34-2.25-7.53,0.37-11.65c0,0-3.51-6.69-2.51-7.17c1-0.49,7.69-1.28,7.69-1.28L579.97,323.69z"/>
		<path class="st4" d="M507.76,372.83c0,0,6.7-17.86,7.09-20.59c0.39-2.73,0.75-5.91-2.08-6.36c-2.83-0.45-5.68,3.24-6.45,6.16
			c-0.76,2.92-1.76,7.64-5.38,7.57c-2.02-0.04-3.87-1.58-5.45-7.22c-1.57-5.65-4.71-12.27-5.53-15.35c-0.82-3.09-3.05-5.3-5.35-4.59
			c-0.97,0.3-3.48,3.83-3.48,3.83s-3.29-1.57-4.17-1.35c-1.67,0.4-2.93,4.23-2.83,6.78c0,0-4.54,0.94-3.82,8.02
			c0.72,7.08,10.35,26.05,10.35,26.05s3.01-3.01,10.65-3.83C498.96,371.1,507.76,372.83,507.76,372.83z"/>
		<path class="st1" d="M473.84,382.39c0,0,3.58-8.13,16.98-10.41c13.41-2.28,22.02,3.59,22.02,3.59l15.52,46.39
			c0,0,2.04,5.69,8.78,5.91c6.74,0.22,8.8-5.21,10.78-10.01c1.98-4.8,9.95-32.06,25.11-38.47c0,0,19.11-7.08,38.24-0.05
			c7.9,2.9,20.53,13.33,26.03,21.34c5.65,8.23,13.1,19.79,15.92,28.17c2.82,8.39,3.71,8.92,3.71,8.92l-17.07-14.47
			c0,0-0.12,30.69-0.07,39.74c0.05,9.04-1.12,15.88-0.82,27.06c0.3,11.18,1.85,34.56,1.85,34.56h-90.66c0,0,0.38-20.33,0.87-32.5
			c0.49-12.17,1.23-22.28,1.23-22.28s-12.13,4.65-21.47,3.36c-9.34-1.29-17.78-1.58-27.72-10.9c-9.93-9.32-13.3-16.35-16.75-26.92
			c-3.46-10.57-7.58-26.01-8.92-33.1C476.05,395.22,473.84,382.39,473.84,382.39z"/>
		<path class="st3" d="M572.13,379.8c0,0,2.07-8.98,10.09-9.77c8.01-0.8,24.47-2.19,24.47-2.19s8.55,5.49,10.51,14.51
			c0,0-5.19-4.05-15.31-5.16C591.77,376.08,577.48,376.62,572.13,379.8z"/>
		<path class="st2" d="M579.97,321.49c0,0,4.29-7.54,15.18-6.92c10.89,0.61,16.08,3.88,23.03,11.58c0,0,5.14-6.41,12.13-5.81
			c6.99,0.6,13.55,6.02,13.44,14.5c-0.11,8.47-4.88,12.63-10.97,13.43c-6.09,0.8-9.39-1.05-9.39-1.05s-2.21,15.33-16.15,20.14
			l-8.28,0.3c0,0-5.74-3.96-2.74-11.11c0,0,5.77,1.48,8.33-3.79c2.56-5.26-1.39-8.96-4.26-9.62c-2.88-0.66-6.51,0.71-6.51,0.71
			S579.06,331.5,579.97,321.49z"/>
		<path class="st2" d="M303.38,524.63H174.24c-1.67,0-3.03-1.36-3.03-3.03v-84.61c0-1.67,1.36-3.03,3.03-3.03h129.15
			c1.67,0,3.03,1.36,3.03,3.03v84.61C306.41,523.27,305.05,524.63,303.38,524.63z"/>
		<path class="st3" d="M265.95,481.77c0,5.6-4.54,10.13-10.13,10.13c-5.6,0-10.13-4.54-10.13-10.13c0-5.6,4.54-10.13,10.13-10.13
			C261.41,471.63,265.95,476.17,265.95,481.77z"/>
		<path class="st1" d="M161.6,356.9c0,4.87-3.95,8.82-8.82,8.82c-4.87,0-8.82-3.95-8.82-8.82c0-4.87,3.95-8.82,8.82-8.82
			C157.66,348.09,161.6,352.03,161.6,356.9z"/>
		<path class="st2" d="M278.3,149.91c0,0-5.39-12.22,1.46-19.66c6.85-7.43,14.98-5.03,14.98-5.03s3.63-3.77,11.53-4.03
			c7.9-0.26,17.4,5.08,17.79,15.36c0.39,10.28-2.72,11.71-2.72,11.71l-0.53-8.48c0,0-13.49-6.55-26.07-2.3c0,0,0.64,6.86-4.57,12.42
			C289.32,150.28,285.12,145.5,278.3,149.91z"/>
		<polygon class="st5" points="298.58,215.19 304.03,222.7 303.17,238.7 320.93,292.44 316.97,232.03 311.91,222.41 312.75,213.09 
			305.69,203.47 		"/>
		<path class="st2" d="M515.24,469.33c0,0-0.96-13.07,19.71-13.58c17.29-0.42,19.71,12.63,19.71,12.63S533.33,478.94,515.24,469.33z
			"/>
		<path class="st2" d="M640.31,430.13l40.46,34.9c0,0,3.47,4.22,1.01,9.1l-37.87,43.68l-3.92-3.26c0,0-1.73-27.76-0.74-38.12
			c0.99-10.36,0.74-18.83,1.23-28.37C640.98,438.52,640.31,430.13,640.31,430.13z"/>
		<path class="st1" d="M289.94,370.64h-16.33c-0.7,0-1.27-0.57-1.27-1.27v-16.33c0-0.7,0.57-1.27,1.27-1.27h16.33
			c0.7,0,1.27,0.57,1.27,1.27v16.33C291.21,370.07,290.64,370.64,289.94,370.64z"/>
		<path class="st2" d="M297.34,411.28h-16.33c-0.7,0-1.27-0.57-1.27-1.27v-16.33c0-0.7,0.57-1.27,1.27-1.27h16.33
			c0.7,0,1.27,0.57,1.27,1.27v16.33C298.61,410.71,298.04,411.28,297.34,411.28z"/>
		<path class="st1" d="M485.6,307.38c0,2.28-1.85,4.14-4.14,4.14c-2.29,0-4.14-1.85-4.14-4.14c0-2.28,1.85-4.14,4.14-4.14
			C483.75,303.24,485.6,305.09,485.6,307.38z"/>
		<g>
			<path class="st0" d="M595.15,314.56c-10.89-0.61-15.18,6.92-15.18,6.92l0.89,4.05c0,0,14.63-20.83,37.32,0.61
				C611.23,318.44,606.04,315.18,595.15,314.56z"/>
			<path class="st0" d="M630.3,320.34c-6.99-0.6-12.13,5.81-12.13,5.81l-1.98,3.67c0,0,19.92-14.64,27.54,5.01
				C643.85,326.36,637.29,320.94,630.3,320.34z"/>
		</g>
		<path class="st2" d="M593.38,416.66c0,0-3.28,58.49-42.23,72.54l1.1-19.33c0,0,11.6-1.49,25.09-18.92
			C590.83,433.53,593.38,416.66,593.38,416.66z"/>
		<path class="st1" d="M411.05,408.3c0,2.33-1.89,4.22-4.22,4.22c-2.33,0-4.22-1.89-4.22-4.22c0-2.33,1.89-4.22,4.22-4.22
			C409.17,404.08,411.05,405.97,411.05,408.3z"/>
		<polygon class="st0" points="303.83,206.54 309.75,214.33 308.5,223 320.01,272.58 316.97,232.03 311.91,222.41 312.75,213.09 
			305.69,203.47 		"/>
		<path class="st0" d="M324.06,136.55c-0.39-10.28-9.89-15.63-17.79-15.36c-3.07,0.1-5.49,0.74-7.31,1.47
			c2.43-0.17,17.12-1.99,20.49,13.43c0,0-3.29-1.45-7.93-1.14c-6.77,0.45-10.05,1.19-10.05,1.19c13.05-0.42,19.34,3.64,19.34,3.64
			l0.53,8.48C321.34,148.26,324.45,146.83,324.06,136.55z"/>
		<g>
			<g>
				<path class="st2" d="M480.86,360.67c-0.76-0.93-1.27-2.06-1.92-3.49c-2.4-5.32-6.42-14.23-5.28-18.65
					c0.92-3.57,2.89-4.2,3.98-4.26c1.94-0.14,3.61,1.27,4.1,2.6c-1.53-0.4-2.74-1.3-3.91-1.3c-1.41,0.07-2.37,1.21-2.91,3.29
					c-1.02,3.98,3.03,12.97,5.21,17.8c0.69,1.53,1.19,2.64,1.35,3.19C480.98,360.66,480.92,360.67,480.86,360.67z"/>
			</g>
			<g>
				<path class="st2" d="M480.37,376.41c-0.62-0.45-2.05-4-8.35-18.35c-2.48-5.64-3.01-10.16-1.58-13.42
					c1.21-2.76,3.39-3.53,3.48-3.57c0.35,1.26-1.34,1.89-2.31,4.13c-1.24,2.88-0.68,7.14,1.6,12.33
					c6.32,14.39,7.75,17.95,7.76,17.99C480.53,376.39,480.45,376.41,480.37,376.41z"/>
			</g>
		</g>
		<g>
			<g>
				<path class="st2" d="M472.43,218.54c0.04-1.3,5.02-1.5,13.35-11.75c4.11-5.08,9.46-7.41,12.98-5.71
					c0.14,0.07,14.35,7.3,14.53,12.77c0.03,0.9-0.3,2.19-2.07,3.19c-6.98,3.99-16.71-4.84-17.12-5.22
					c0.97-0.87,10.32,7.63,16.47,4.09c0.98-0.56,1.44-1.22,1.41-2.01c-0.13-3.8-10.31-9.95-13.8-11.65
					c-2.93-1.43-7.73,0.84-11.41,5.36C478.04,218.37,472.73,218.54,472.43,218.54z"/>
			</g>
			<g>
				<path class="st2" d="M497.23,242.49c-0.73-0.01-17.61-0.34-23.51-1.27c6.02-0.37,23.35-0.03,23.52-0.03
					C497.87,242.21,497.58,242.49,497.23,242.49z"/>
			</g>
			<g>
				<path class="st2" d="M497.16,227.71c-0.23-0.04-6.07-1.58-10.52-0.89c4.54-1.99,10.44-0.46,10.69-0.39
					C497.71,227.52,497.44,227.71,497.16,227.71z"/>
			</g>
		</g>
		<g>
			<path class="st2" d="M292.98,374.32h-12.54c-2.11,0-3.82-1.72-3.82-3.83v-12.53c0-2.11,1.71-3.82,3.82-3.82h12.54
				c2.11,0,3.82,1.72,3.82,3.82v12.53C296.8,372.61,295.08,374.32,292.98,374.32z M280.44,355.45c-1.39,0-2.52,1.13-2.52,2.52v12.53
				c0,1.39,1.13,2.52,2.52,2.52h12.54c1.39,0,2.52-1.13,2.52-2.52v-12.53c0-1.39-1.13-2.52-2.52-2.52H280.44z"/>
		</g>
		<g>
			<path class="st2" d="M292.98,405.49h-12.54c-2.11,0-3.82-1.72-3.82-3.83v-12.54c0-2.11,1.71-3.82,3.82-3.82h12.54
				c2.11,0,3.82,1.72,3.82,3.82v12.54C296.8,403.78,295.08,405.49,292.98,405.49z M280.44,386.61c-1.39,0-2.52,1.13-2.52,2.52v12.54
				c0,1.39,1.13,2.52,2.52,2.52h12.54c1.39,0,2.52-1.13,2.52-2.52v-12.54c0-1.39-1.13-2.52-2.52-2.52H280.44z"/>
		</g>
		<g>
			<path class="st2" d="M351.76,359.49h-48.35c0-1.3,48.35-1.3,48.35-1.3C352.41,359.19,352.12,359.49,351.76,359.49z"/>
		</g>
		<g>
			<path class="st2" d="M351.76,371.33h-48.35c0-1.3,48.35-1.3,48.35-1.3C352.41,371.04,352.12,371.33,351.76,371.33z"/>
		</g>
		<g>
			<path class="st2" d="M351.76,390.66h-48.35c0-1.3,48.35-1.3,48.35-1.3C352.41,390.36,352.12,390.66,351.76,390.66z"/>
		</g>
		<g>
			<path class="st2" d="M351.76,402.5h-48.35c0-1.3,48.35-1.3,48.35-1.3C352.41,402.2,352.12,402.5,351.76,402.5z"/>
		</g>
		<g>
			<g>
				<path class="st2" d="M508.2,373.63c-0.53-0.13-0.73-0.49-0.63-0.83c0.34-1.16,1.13-3.47,2.04-6.16
					c1.89-5.57,4.48-13.19,4.85-15.74c0.27-1.84,0.07-3.03-0.62-3.76c-0.89-0.93-2.51-0.83-3.55-0.18
					c-1.03,0.64-1.83,1.76-2.47,3.44c-0.16,0.42-0.33,0.95-0.52,1.55c-0.88,2.73-2.21,6.87-4.8,8.02c-1.02,0.46-2.12,0.41-3.28-0.12
					c-0.7-0.32-1.29-0.88-1.87-1.76c-1.02-1.58-1.71-3.4-2.37-5.16c-0.26-0.7-0.52-1.38-0.79-2.05c-1.11-2.67-2.27-5.55-3.21-8.51
					c-0.18-0.55-0.35-1.11-0.52-1.68c-0.4-1.32-0.82-2.68-1.32-3.97c-0.5-1.28-1.08-2.6-2.07-3.31c-0.79-0.57-1.69-0.5-2.31-0.33
					c-1.18,0.31-2.01,1.07-2.53,2.3c-1.77,4.22,0.65,13.76,5.74,22.7c-5.52-7.05-9.21-17.8-6.94-23.2c0.67-1.61,1.82-2.64,3.4-3.06
					c1.28-0.33,2.45-0.15,3.4,0.54c1.27,0.92,1.94,2.43,2.51,3.89c0.52,1.34,0.95,2.73,1.36,4.07c0.17,0.55,0.34,1.11,0.51,1.66
					c0.93,2.91,2.07,5.76,3.17,8.4c0.28,0.68,0.55,1.38,0.81,2.09c0.63,1.7,1.29,3.45,2.24,4.9c0.44,0.67,0.86,1.08,1.32,1.29
					c0.82,0.37,1.55,0.41,2.21,0.12c2.06-0.91,3.28-4.71,4.09-7.23c0.2-0.62,0.38-1.17,0.54-1.6c0.74-1.96,1.72-3.29,3-4.09
					c1.46-0.91,3.78-1.08,5.18,0.4c1.3,1.36,1.17,3.42,0.96,4.84c-0.39,2.67-2.89,10.04-4.9,15.97c-0.91,2.67-1.69,4.97-2.02,6.1
					C508.74,373.44,508.48,373.63,508.2,373.63z"/>
			</g>
		</g>
		<path class="st2" d="M580.82,335.24c-0.47-0.24-0.87-0.15-1.61,1.58c-0.83,1.92-0.43,2.45,0.02,2.58c0.45,0.13,1.1-0.33,1.56-1.75
			C581.24,336.23,581.43,335.56,580.82,335.24z"/>
		<g>
			<path class="st2" d="M598.16,357.47c-0.71,0-1.42-0.1-2.12-0.3c-1.53-0.43-2.88-1.31-3.88-2.54c1.84,0.19,2.96,0.93,4.23,1.29
				c1.65,0.47,3.4,0.26,4.89-0.58c1.5-0.84,2.59-2.21,3.06-3.87c0.47-1.66,0.26-3.4-0.58-4.9c-0.84-1.5-2.21-2.58-3.87-3.05
				c-2.15-0.61-4.43-0.08-6.09,1.43c1.12-2.77,3.85-3.43,6.44-2.68c1.99,0.56,3.64,1.86,4.65,3.67c1.01,1.8,1.26,3.9,0.69,5.89
				c-0.56,1.99-1.86,3.64-3.67,4.65C600.75,357.13,599.46,357.47,598.16,357.47z"/>
		</g>
		<g>
			<path class="st2" d="M598.99,353.94c-0.49-0.22-4.33-4.64-4.33-4.64c0.26-1.04,5.96-3.23,5.96-3.23
				c0.47,1.21-4.37,3.07-4.37,3.07l3.23,3.71C599.29,353.89,599.14,353.94,598.99,353.94z"/>
		</g>
		<g>
			<path class="st2" d="M582.22,370.68c-0.65-0.67-0.5-4.8-0.5-4.8c1.3,0.04,1.15,4.17,1.15,4.17
				C582.86,370.4,582.57,370.68,582.22,370.68z"/>
		</g>
		<g>
			<path class="st2" d="M550.15,525.32c-0.78-11.17,0.79-42.22,1.39-53.91c0.71,11.74-0.87,42.76-0.74,53.25
				C550.16,525.32,550.16,525.32,550.15,525.32z"/>
		</g>
		<g>
			<path class="st2" d="M640.81,525.32c-0.68-0.89-3.66-31.28-2.03-55.72c1.41-21.07,2.18-42.66-1.63-57.84
				c-2.64-10.54-12.36-34.91-45.45-34.91c-8.28,0.09-13.7,1.06-18.41,3.14c-5.69,2.51-10.61,7.53-14.63,14.9
				c-2.87,5.27-5.17,10.99-7.4,16.53c-0.7,1.73-1.39,3.46-2.1,5.17c-1.45,3.48-3.1,7.09-6.04,9.55c-3.22,2.69-7.56,3.15-11.04,1.16
				c-3.52-2.01-4.68-5.61-5.8-9.09l-4.79-14.66l-8.96-27.36c-0.66-0.65-5.55-5.01-18.32-3.86c-14.15,1.27-19,8.92-19.7,10.17
				c2.48,14.64,4.4,26.01,8.35,40c3.6,12.77,8.65,27.23,18.84,37.62c11.87,12.11,30.76,15.74,49.29,9.45l2.08-0.63
				c31.2-12.25,39.45-52.43,39.53-52.83c1.2,0.66-7.19,41.53-39.11,54.06l-2.11,0.64c-18.98,6.45-38.39,2.7-50.62-9.78
				c-10.39-10.6-15.52-25.25-19.17-38.18c-3.96-14.06-5.89-25.46-8.33-39.89c0.16-1.26,4.75-10.49,20.83-11.94
				c14.47-1.31,19.31,4.16,19.51,4.38c0.12,0.23,13.92,42.39,13.92,42.39c1.09,3.4,2.12,6.6,5.2,8.36c2.99,1.72,6.75,1.31,9.55-1.03
				c2.71-2.26,4.29-5.71,5.67-9.05c0.71-1.71,1.4-3.43,2.09-5.16c2.24-5.57,4.55-11.33,7.46-16.67c4.16-7.63,9.3-12.84,15.25-15.47
				c4.88-2.16,10.47-3.16,18.12-3.25c34.84,0,44.82,25.05,47.54,35.9c3.85,15.34,3.07,37.06,1.66,58.24
				c-1.62,24.34,1.35,54.61,1.38,54.92C640.86,525.32,640.84,525.32,640.81,525.32z"/>
		</g>
		<g>
			<path class="st2" d="M656.92,438.44c-9.72-24.11-20.24-40.44-31.87-48.95c12.6,7.61,23.27,24.14,32.47,48.07
				C657.08,438.42,657,438.44,656.92,438.44z"/>
		</g>
		<g>
			<path class="st2" d="M581.91,366.27c-6.37-1.75-14.69-4.89-15.28-12.16c-0.15-1.81,0.1-3.77,0.73-5.82
				c0.42-0.97,0.72-1.64,0.83-1.97c-0.65-1.06-3.45-5.82-2.39-7.64c0.47-0.79,3.11-1.33,7.84-1.58l5.72-13.66
				c1.2,0.5-4.67,14.54-4.67,14.54c-3.66,0.55-7.31,0.99-7.81,1.41c-0.42,0.74,1.19,4.27,2.55,6.44c0.24,0.38,0.12,0.72-0.6,2.32
				c-0.8,2.4-1.03,4.19-0.9,5.84c0.52,6.46,8.33,9.37,14.15,10.99C582.46,366.08,582.2,366.27,581.91,366.27z"/>
		</g>
		<g>
			<path class="st2" d="M617.8,383.55c-5.09-11.58-10.7-14.78-11.6-15.23c-1.95,0.12-20.31,1.27-25.12,2.72
				c-6.36,1.9-8.3,8.88-8.32,8.95c-1.17-0.65,0.89-8.09,7.94-10.21c5.21-1.56,24.75-2.73,25.59-2.78
				c0.56,0.16,7.01,2.95,12.11,15.64C617.97,383.53,617.88,383.55,617.8,383.55z"/>
		</g>
		<g>
			<path class="st2" d="M570.51,353.42c-2,0-3.48-1.05-3.57-1.11c0.87-0.98,3.42,0.8,6.12-0.99
				C572.62,353.16,571.5,353.42,570.51,353.42z"/>
		</g>
		<g>
			<path class="st2" d="M515.24,469.98c-0.65-8.5,8.5-14.88,19.74-14.88c10.66,0,19.6,5.81,20.34,13.22
				c-1.97-6.62-10.33-11.91-20.34-11.91c-10.52,0-19.09,5.8-19.09,12.92C515.89,469.69,515.6,469.98,515.24,469.98z"/>
		</g>
		<g>
			<path class="st2" d="M503.93,344.72h-5.8c0-1.31,5.8-1.31,5.8-1.31c3.54,0,6.42-2.88,6.42-6.42v-14.96
				c0-3.54-2.88-6.42-6.42-6.42h-43.42c-3.54,0-6.42,2.88-6.42,6.42V337c0,3.54,2.88,6.42,6.42,6.42h6.33
				c0,1.31-6.33,1.31-6.33,1.31c-4.26,0-7.72-3.47-7.72-7.73v-14.96c0-4.26,3.46-7.73,7.72-7.73h43.42c4.26,0,7.72,3.47,7.72,7.73
				V337C511.66,341.26,508.19,344.72,503.93,344.72z"/>
		</g>
		<g>
			<path class="st2" d="M481.46,303.19c-0.65-0.65-0.65-14.23-0.65-14.23H411.5c0-1.3,69.97-1.3,69.97-1.3
				c0.65,0.65,0.65,14.88,0.65,14.88C482.11,302.9,481.82,303.19,481.46,303.19z"/>
		</g>
		<g>
			<path class="st2" d="M404.28,293.46c-2.85,0-5.16-2.31-5.16-5.16c0-2.85,2.31-5.16,5.16-5.16c2.85,0,5.16,2.32,5.16,5.16
				C409.44,291.15,407.13,293.46,404.28,293.46z M404.28,284.45c-2.13,0-3.86,1.73-3.86,3.86c0,2.13,1.73,3.86,3.86,3.86
				c2.13,0,3.86-1.73,3.86-3.86C408.14,286.17,406.41,284.45,404.28,284.45z"/>
		</g>
		<g>
			<path class="st2" d="M481.46,312.21c-2.85,0-5.16-2.31-5.16-5.16c0-2.85,2.31-5.16,5.16-5.16c2.84,0,5.16,2.31,5.16,5.16
				C486.62,309.89,484.31,312.21,481.46,312.21z M481.46,303.19c-2.13,0-3.86,1.73-3.86,3.86c0,2.13,1.73,3.86,3.86,3.86
				c2.13,0,3.86-1.73,3.86-3.86C485.32,304.92,483.59,303.19,481.46,303.19z"/>
		</g>
		<g>
			<path class="st2" d="M595.72,266.38c6.67-4.28,10.97-10.84,10.97-18.36v-33.4c0-10.48-8.53-19.02-19.02-19.02h-70.85
				c-5.93,0-11.43,2.72-15.08,7.46c2.86-5.86,8.74-8.76,15.08-8.76h70.85c11.2,0,20.32,9.12,20.32,20.32v33.4
				c0,8.05-4.6,15.06-12.01,18.3C595.89,266.36,595.8,266.38,595.72,266.38z"/>
		</g>
		<g>
			<path class="st2" d="M563.14,268.35h-46.31c-11.2,0-20.32-9.12-20.32-20.32l0.01-33.98c1.29,0.58,1.29,33.98,1.29,33.98
				c0,10.48,8.53,19.02,19.02,19.02h46.31C563.79,268.05,563.5,268.35,563.14,268.35z"/>
		</g>
		<g>
			<path class="st2" d="M570.17,246.02h-29.92c-2.1,0-3.69-0.74-4.46-2.1c-0.78-1.35-0.62-3.1,0.44-4.92l14.89-25.5
				c1.06-1.81,2.51-2.81,4.09-2.81c1.57,0,3.03,1,4.09,2.81l14.91,25.5c1.06,1.82,1.22,3.56,0.44,4.92
				C573.86,245.27,572.28,246.02,570.17,246.02z M555.21,211.99c-1.1,0-2.15,0.77-2.96,2.17l-14.89,25.5
				c-0.81,1.4-0.97,2.68-0.43,3.61c0.54,0.93,1.72,1.44,3.34,1.44h29.92c1.61,0,2.8-0.51,3.33-1.44c0.53-0.93,0.38-2.21-0.44-3.6
				l-14.9-25.5C557.35,212.77,556.3,211.99,555.21,211.99z"/>
		</g>
		<g>
			<g>
				<path class="st2" d="M311.45,525.28c4.77-1.3,8.66-5.19,8.66-9.96v-33.73c1.3,0,1.3,33.73,1.3,33.73
					C321.41,520.81,316.95,525.28,311.45,525.28z"/>
			</g>
			<g>
				<path class="st2" d="M194.87,525.28c-5.5,0-9.96-4.47-9.96-9.96v-72.04c0-5.49,4.47-9.96,9.96-9.96h116.58
					c5.49,0,9.96,4.47,9.96,9.96v11.16c-1.3,0-1.3-11.16-1.3-11.16c0-4.78-3.89-8.66-8.66-8.66H194.87c-4.77,0-8.66,3.88-8.66,8.66
					v72.04c0,4.77,3.89,8.66,8.66,8.66C195.52,524.99,195.23,525.28,194.87,525.28z"/>
			</g>
			<g>
				<path class="st2" d="M253.33,490.08c-5.62,0-10.19-4.57-10.19-10.19c0-5.62,4.57-10.2,10.19-10.2c5.62,0,10.19,4.58,10.19,10.2
					C263.52,485.51,258.95,490.08,253.33,490.08z M253.33,471c-4.9,0-8.89,3.99-8.89,8.89c0,4.9,3.99,8.88,8.89,8.88
					c4.9,0,8.89-3.98,8.89-8.88C262.22,474.99,258.23,471,253.33,471z"/>
			</g>
		</g>
		<g>
			<path class="st2" d="M161.96,480.92h-7.49c0-1.3,7.49-1.3,7.49-1.3C162.61,480.62,162.32,480.92,161.96,480.92z M152.79,475.1
				c-0.65-0.65-0.65-8.15-0.65-8.15c1.3,0,1.3,7.5,1.3,7.5C153.44,474.81,153.15,475.1,152.79,475.1z M152.79,460.11
				c-0.65-0.65-0.65-8.14-0.65-8.14c1.3,0,1.3,7.49,1.3,7.49C153.44,459.82,153.15,460.11,152.79,460.11z M152.79,445.12
				c-0.65-0.65-0.65-8.14-0.65-8.14c1.3,0,1.3,7.49,1.3,7.49C153.44,444.83,153.15,445.12,152.79,445.12z M152.79,430.14
				c-0.65-0.65-0.65-8.14-0.65-8.14c1.3,0,1.3,7.49,1.3,7.49C153.44,429.84,153.15,430.14,152.79,430.14z M152.79,415.15
				c-0.65-0.65-0.65-8.15-0.65-8.15c1.3,0,1.3,7.5,1.3,7.5C153.44,414.86,153.15,415.15,152.79,415.15z M152.79,400.16
				c-0.65-0.65-0.65-8.14-0.65-8.14c1.3,0,1.3,7.49,1.3,7.49C153.44,399.87,153.15,400.16,152.79,400.16z M152.79,385.18
				c-0.65-0.65-0.65-8.14-0.65-8.14c1.3,0,1.3,7.49,1.3,7.49C153.44,384.88,153.15,385.18,152.79,385.18z M152.79,370.19
				c-0.65-0.65-0.65-8.14-0.65-8.14c1.3,0,1.3,7.49,1.3,7.49C153.44,369.89,153.15,370.19,152.79,370.19z"/>
		</g>
		<g>
			<path class="st2" d="M214.18,357.56h-7.49c0-1.31,7.49-1.31,7.49-1.31C214.83,357.26,214.54,357.56,214.18,357.56z
				 M199.19,357.56h-7.49c0-1.31,7.49-1.31,7.49-1.31C199.84,357.26,199.55,357.56,199.19,357.56z M184.21,357.56h-7.49
				c0-1.31,7.49-1.31,7.49-1.31C184.86,357.26,184.57,357.56,184.21,357.56z M169.22,357.56h-7.49c0-1.31,7.49-1.31,7.49-1.31
				C169.87,357.26,169.58,357.56,169.22,357.56z"/>
		</g>
		<g>
			<path class="st2" d="M219.32,362.7c-3.19,0-5.79-2.6-5.79-5.79c0-3.19,2.6-5.79,5.79-5.79c3.2,0,5.79,2.6,5.79,5.79
				C225.11,360.1,222.52,362.7,219.32,362.7z M219.32,352.42c-2.47,0-4.49,2.02-4.49,4.49c0,2.47,2.01,4.49,4.49,4.49
				c2.48,0,4.49-2.01,4.49-4.49C223.81,354.43,221.8,352.42,219.32,352.42z"/>
		</g>
		<g>
			<path class="st2" d="M171.21,486.06c-3.19,0-5.79-2.6-5.79-5.79c0-3.19,2.6-5.79,5.79-5.79c3.19,0,5.79,2.6,5.79,5.79
				C177,483.46,174.4,486.06,171.21,486.06z M171.21,475.78c-2.48,0-4.49,2.01-4.49,4.49c0,2.47,2.01,4.49,4.49,4.49
				s4.49-2.02,4.49-4.49C175.7,477.79,173.69,475.78,171.21,475.78z"/>
		</g>
		<g>
			<path class="st2" d="M152.79,362.7c-3.2,0-5.79-2.6-5.79-5.79c0-3.19,2.59-5.79,5.79-5.79c3.19,0,5.79,2.6,5.79,5.79
				C158.58,360.1,155.98,362.7,152.79,362.7z M152.79,352.42c-2.48,0-4.49,2.02-4.49,4.49c0,2.47,2.01,4.49,4.49,4.49
				c2.47,0,4.49-2.01,4.49-4.49C157.28,354.43,155.26,352.42,152.79,352.42z"/>
		</g>
		<g>
			<path class="st2" d="M671.83,525.32H152.2c0-1.3,519.62-1.3,519.62-1.3C672.48,525.02,672.19,525.32,671.83,525.32z"/>
		</g>
		<g>
			<path class="st2" d="M478.26,251.72c-1.38,0-2.64-1.96-3.85-5.98c-1.11-3.7-2.02-8.66-2.55-13.97
				c-0.7-7.05-1.09-20.49,2.47-20.85c1.22-0.08,2.9,1.14,3.73,4.2c-1.93-2.12-3.09-2.9-3.57-2.9c-1.13,0.11-2.58,7.06-1.35,19.42
				c0.52,5.23,1.41,10.11,2.5,13.73c1.25,4.16,2.29,5.05,2.6,5.05c0.59-0.12,2.11-3.13,2.11-9.22c1.3,5.81-0.1,10.33-1.96,10.51
				C478.36,251.72,478.31,251.72,478.26,251.72z"/>
		</g>
		<path class="st2" d="M301.49,148.74c0.52-0.08,0.87,0.15,1.01,2.02c0.15,2.09-0.39,2.45-0.86,2.43c-0.47-0.02-0.94-0.67-0.9-2.16
			S300.81,148.84,301.49,148.74z"/>
		<path class="st2" d="M316.7,149.01c0.52-0.06,0.86,0.17,0.95,2.05c0.1,2.09-0.46,2.44-0.92,2.41c-0.47-0.04-0.92-0.69-0.84-2.18
			C315.96,149.79,316.02,149.1,316.7,149.01z"/>
		<g>
			<path class="st2" d="M286.31,182.68c-0.65-0.69,0.43-19.43,0.43-19.43c1.3,0.07,0.22,18.81,0.22,18.81
				C286.94,182.41,286.66,182.68,286.31,182.68z"/>
		</g>
		<g>
			<path class="st2" d="M310.13,179.36c-0.67,0-1.33-0.02-1.99-0.04c-0.48-0.01-0.95-0.03-1.42-0.03c-3.31-0.04-6.02-0.33-8.52-0.91
				c2.7-0.71,5.31-0.43,8.53-0.4c0.47,0.01,0.95,0.02,1.44,0.03c3.78,0.09,7.71,0.21,9.96-3.16c2.11-3.17,2.15-7.34,2.19-11.37
				c0.01-0.9,0.02-1.78,0.05-2.63c0.09-2.49-0.17-18.03-0.21-20.67c-1.88-0.96-11.85-5.59-24.77-2.2
				c-0.04,1.76-0.57,7.58-5.24,12.97c4.14-6.77,3.94-13.38,3.93-13.44c15.55-4.82,26.58,1.45,27.04,1.71
				c0.34,1.3,0.65,18.94,0.54,21.68c-0.03,0.83-0.04,1.71-0.05,2.59c-0.04,4.03-0.09,8.59-2.41,12.08
				C317.02,178.89,313.52,179.36,310.13,179.36z"/>
		</g>
		<g>
			<path class="st2" d="M284.16,164.65c-1.93,0-3.87-0.67-5.45-1.98c-1.75-1.46-2.82-3.5-3.02-5.77c-0.21-2.27,0.48-4.47,1.94-6.22
				c1.45-1.75,3.5-2.82,5.77-3.03c2.27-0.21,4.47,0.48,6.22,1.94c1.14,0.95,2.02,2.19,2.53,3.58c-1.66-0.72-2.39-1.77-3.36-2.58
				c-1.48-1.23-3.36-1.84-5.27-1.64c-1.92,0.17-3.65,1.08-4.89,2.57c-1.23,1.48-1.82,3.35-1.64,5.26c0.17,1.92,1.09,3.65,2.56,4.89
				c2.59,2.15,6.28,2.25,8.96,0.22C287.77,164.08,285.96,164.65,284.16,164.65z"/>
		</g>
		<g>
			<path class="st2" d="M320.65,146.65c-0.65-0.5-1.78-2.69-5.28-1.78c4.31-2.43,5.86,0.83,5.87,0.86
				C320.84,146.63,320.75,146.65,320.65,146.65z"/>
		</g>
		<g>
			<path class="st2" d="M298.21,146.86c3.29-5.86,7.36-3.29,7.4-3.26c-0.84,1.02-3.84-0.84-6.9,3.01
				C298.59,146.77,298.4,146.86,298.21,146.86z"/>
		</g>
		<g>
			<path class="st2" d="M311.52,182.74c-0.65-0.66-0.63-4.06-0.63-4.06c1.3,0.01,1.28,3.41,1.28,3.41
				C312.17,182.45,311.88,182.74,311.52,182.74z"/>
		</g>
		<g>
			<path class="st2" d="M278.56,151.27c-3.87-9.05-3.45-15.92,0.68-21.41c1.68-2.23,3.78-3.92,6.09-4.9
				c2.58-1.1,5.54-1.22,9.04-0.37c-3.53,0.48-6.21,0.58-8.53,1.57c-2.1,0.89-4.02,2.44-5.55,4.48c-3.84,5.1-4.21,11.56-1.12,19.74
				C278.72,151.25,278.64,151.27,278.56,151.27z"/>
		</g>
		<g>
			<path class="st2" d="M281.65,160.84c-0.28-1.24,5.04-3.82,5.04-3.82l-4.89-5.07c0.94-0.9,6.45,4.81,6.45,4.81
				c-0.19,1.04-6.31,4.01-6.31,4.01C281.84,160.82,281.74,160.84,281.65,160.84z"/>
		</g>
		<g>
			<path class="st2" d="M297.38,129.83c-0.51-0.24-3.67-4.24-3.67-4.24c1.02-0.81,4.18,3.18,4.18,3.18
				C297.66,129.78,297.52,129.83,297.38,129.83z"/>
		</g>
		<g>
			<path class="st2" d="M352.6,331.93c-0.65-60.32-3.26-84.91-6.66-110.84c4.7,25.82,7.31,50.44,7.31,110.19
				C353.25,331.63,352.96,331.93,352.6,331.93z"/>
		</g>
		<g>
			<path class="st2" d="M293.66,223.93c-0.59-0.38-15.75-34.06-15.75-34.06c0.12-0.71,7.61-8.63,7.61-8.63
				c0.95,0.01,19.96,20.74,19.96,20.74l5.41-20.06c1.17-0.19,6.35,7.6,6.35,7.6c0.11,0.37-0.09,28.87-0.09,28.87
				c-1.18,0.37-11.31-13.91-11.31-13.91l-11.63,19.14C294.1,223.81,293.89,223.93,293.66,223.93z M279.28,189.73l14.47,32.15
				l11.25-18.51l-19-20.73L279.28,189.73z M306.51,203.16l9.36,13.19l0.19-26.28l-4.28-6.43L306.51,203.16z"/>
		</g>
		<g>
			<path class="st2" d="M320.93,293.91c-4.65-13.94-25.28-73.77-25.49-74.37c1.44,0.17,22.07,60.03,26.11,73.53
				C321.06,293.9,321,293.91,320.93,293.91z"/>
		</g>
		<g>
			<path class="st2" d="M321.97,331.93c-0.65-0.63-1.68-38.65-1.68-38.65c-0.24-16.42-5.28-75.52-5.33-76.12
				c1.35,0.49,6.39,59.63,6.63,76.09l1.04,38.01C321.98,331.93,321.97,331.93,321.97,331.93z"/>
		</g>
		<g>
			<path class="st2" d="M304.49,224c-0.53-0.28-6.4-8.53-6.4-8.53c1.06-0.75,6.71,7.2,6.71,7.2l6.5-0.57l0.79-9.07
				c1.3,0.12,0.45,9.74,0.45,9.74c-0.59,0.59-8.01,1.24-8.01,1.24C304.53,224,304.51,224,304.49,224z"/>
		</g>
		<g>
			<path class="st2" d="M303.17,239.95c-0.65-0.71,0.68-16.65,0.68-16.65c1.29,0.11-0.03,16.05-0.03,16.05
				C303.79,239.69,303.5,239.95,303.17,239.95z"/>
		</g>
		<g>
			<path class="st2" d="M316.71,233.15c-0.58-0.37-5.38-10.16-5.38-10.16c1.17-0.57,5.97,9.22,5.97,9.22
				C316.9,233.13,316.8,233.15,316.71,233.15z"/>
		</g>
		<g>
			<path class="st2" d="M306.75,169.4c-0.87,0-1.66-0.21-2.35-0.62c-2.08-1.25-2.52-3.87-2.54-3.99c1.29-0.19,1.66,1.94,3.21,2.87
				c0.92,0.55,2.12,0.59,3.55,0.08C308.24,169.25,307.47,169.4,306.75,169.4z"/>
		</g>
		<g>
			<path class="st2" d="M321.05,149.37c-0.51-1.06,2.65-5.73,2.34-11.3c-0.55-9.79-6.7-13.58-10.32-14.97
				c-6.27-2.41-13.96-1.3-17.86,2.58c3.33-5.14,11.6-6.38,18.33-3.8c3.91,1.5,10.56,5.59,11.15,16.11
				c0.34,6.03-2.96,10.89-3.1,11.09C321.46,149.27,321.26,149.37,321.05,149.37z"/>
		</g>
		<g>
			<path class="st2" d="M212.2,330.13c0.03-33.41,1.95-77.14,7.18-99.54c8.89-38.04,58.58-41.61,59.09-41.64
				c-0.41,1.33-49.15,4.84-57.82,41.93c-5.21,22.29-7.12,65.93-7.8,98.6C212.84,329.84,212.56,330.13,212.2,330.13z"/>
		</g>
		<g>
			<path class="st2" d="M256.79,331.93c-1.57-57.6,3.73-95.28,3.78-95.66c1.24,0.56-4.04,38.16-3.13,95
				C256.8,331.93,256.79,331.93,256.79,331.93z"/>
		</g>
		<g>
			<path class="st2" d="M232.65,434.62C232,433.97,232,331.28,232,331.28c1.3,0,1.3,102.69,1.3,102.69
				C233.3,434.33,233.01,434.62,232.65,434.62z"/>
		</g>
		<g>
			<path class="st2" d="M504.15,463.94H320.76c0-1.3,183.38-1.3,183.38-1.3C504.8,463.64,504.51,463.94,504.15,463.94z"/>
		</g>
		<g>
			<path class="st2" d="M594.72,311.72c-0.65-0.65-0.65-33.74-0.65-33.74c1.3,0,1.3,33.09,1.3,33.09
				C595.37,311.42,595.08,311.72,594.72,311.72z"/>
		</g>
		<g>
			<path class="st2" d="M390.48,203.13c-0.65-0.65-0.65-42.89-0.65-42.89c0-8.25-6.72-14.97-14.98-14.97h-44.24
				c0-1.3,44.24-1.3,44.24-1.3c8.98,0,16.27,7.3,16.27,16.27v42.23C391.13,202.84,390.84,203.13,390.48,203.13z"/>
		</g>
		<g>
			<path class="st2" d="M374.86,331.93h-155.4c-8.97,0-16.27-7.3-16.27-16.28v-155.4c0-8.97,7.3-16.27,16.27-16.27h49.12
				c0,1.3-49.12,1.3-49.12,1.3c-8.25,0-14.98,6.72-14.98,14.97v155.4c0,8.26,6.72,14.98,14.98,14.98h155.4
				c8.26,0,14.98-6.72,14.98-14.98v-49.92c1.3,0,1.3,49.92,1.3,49.92C391.13,324.62,383.83,331.93,374.86,331.93z"/>
		</g>
		<g>
			<path class="st2" d="M444.78,213.51c-72.98,0-127.72-22.77-128.33-23.04c1.2-0.9,70.92,28.09,157.89,20.45
				C464.31,213.12,454.38,213.51,444.78,213.51z"/>
		</g>
		<g>
			<path class="st2" d="M411.67,259.95c-35.3,0-61.26-5.77-61.66-5.87c0.92-1.13,64.37,12.97,127.95-3.18
				C455.05,258.06,431.84,259.95,411.67,259.95z"/>
		</g>
		<g>
			<path class="st2" d="M598.96,368.31c-7.43-6.19-3.31-12.08-3.27-12.14c0.91,0.96-2.39,5.77,3.69,11
				C599.32,368.23,599.14,368.31,598.96,368.31z"/>
		</g>
		<g>
			<path class="st2" d="M606.33,368.31c11.35-4.78,15.71-16.84,16.41-21.19c1.26,0.37-1.54,16.7-16.22,21.16
				C606.46,368.3,606.39,368.31,606.33,368.31z"/>
		</g>
		<g>
			<path class="st2" d="M593.96,344.65c-13.61-10.89-14.61-22.62-14.64-23.11c3.29-5.13,8.62-7.77,15.13-7.86
				c9.5,0,19.06,4.83,24.25,12.09c-5.94-6.07-15.3-10.79-23.91-10.79c-6.3,0.09-11.2,2.46-14.15,6.69
				c0.21,1.64,1.96,12.25,13.73,21.84C594.34,344.57,594.15,344.65,593.96,344.65z"/>
		</g>
		<g>
			<path class="st2" d="M583.93,333.12c-1.49-1.81-2.92-1.69-3-1.67c-0.06-1.29,2.17-1.56,3.55,0.67
				C584.17,333.09,584.05,333.12,583.93,333.12z"/>
		</g>
		<g>
			<path class="st2" d="M630.35,349.07c-6.37,0-11.23-3.01-11.49-3.17c0.77-1.05,8.33,3.63,16.6,1.14
				c3.86-1.15,6.88-5.18,7.51-10.03c0.75-5.71-1.96-11.06-7.23-14.29c-2.86-1.75-5.78-2.25-8.67-1.48
				c-6.82,1.81-11.42,10.09-11.46,10.17c-0.95-0.98,3.75-9.47,11.12-11.43c3.25-0.88,6.51-0.32,9.69,1.63
				c5.72,3.51,8.65,9.33,7.84,15.57c-0.7,5.34-4.08,9.81-8.42,11.11C633.94,348.85,632.09,349.07,630.35,349.07z"/>
		</g>
		<g>
			<path class="st2" d="M647.82,519.52c-1.94,0-3.88-0.66-5.46-2.03l-2.55-2.19c0.85-0.99,3.4,1.21,3.4,1.21
				c2.95,2.54,7.43,2.21,9.98-0.74l35-40.64c2.55-2.96,2.21-7.43-0.74-9.98l-48.01-41.34c0.85-0.98,48.86,40.36,48.86,40.36
				c3.5,3.01,3.89,8.31,0.88,11.81l-35,40.64C652.52,518.54,650.18,519.52,647.82,519.52z"/>
		</g>
		<g>
			<path class="st2" d="M313.43,165.34c1.17-2.47,1.96-3.43,2-4.07c0.03-0.46-0.35-0.89-1.02-1.6c-0.83-0.87-1.95-2.08-2.45-4.08
				c-1.25-5.06-0.76-6.64-0.7-6.8c1.21,0.48,0.85,1.94,1.97,6.49c0.41,1.68,1.33,2.64,2.13,3.5c0.74,0.79,1.44,1.53,1.37,2.58
				c-0.07,1.06-0.93,2.21-2.88,3.84C313.72,165.29,313.58,165.34,313.43,165.34z"/>
		</g>
		<g>
			<path class="st2" d="M406.84,401.74c-0.65-0.65-0.65-70.62-0.65-70.62c0.65-0.65,29.9-0.65,29.9-0.65c0,1.3-28.6,1.3-28.6,1.3
				v69.32C407.49,401.44,407.2,401.74,406.84,401.74z"/>
		</g>
		<g>
			<path class="st2" d="M468.54,408.95h-54.12c0-1.3,54.12-1.3,54.12-1.3C469.19,408.65,468.9,408.95,468.54,408.95z"/>
		</g>
		<g>
			<path class="st2" d="M406.84,413.46c-2.85,0-5.16-2.32-5.16-5.16c0-2.85,2.31-5.16,5.16-5.16c2.84,0,5.16,2.31,5.16,5.16
				C411.99,411.14,409.68,413.46,406.84,413.46z M406.84,404.44c-2.13,0-3.86,1.73-3.86,3.86c0,2.13,1.73,3.86,3.86,3.86
				c2.13,0,3.86-1.73,3.86-3.86C410.7,406.17,408.96,404.44,406.84,404.44z"/>
		</g>
		<g>
			<path class="st2" d="M443.34,336.27c-2.84,0-5.16-2.31-5.16-5.16c0-2.85,2.31-5.16,5.16-5.16c2.85,0,5.16,2.31,5.16,5.16
				C448.5,333.96,446.19,336.27,443.34,336.27z M443.34,327.26c-2.13,0-3.86,1.73-3.86,3.85c0,2.13,1.73,3.86,3.86,3.86
				c2.13,0,3.86-1.73,3.86-3.86C447.2,328.99,445.47,327.26,443.34,327.26z"/>
		</g>
		<g>
			<path class="st2" d="M582.22,370.68c-0.65-0.67-0.5-4.8-0.5-4.8c1.3,0.04,1.15,4.17,1.15,4.17
				C582.86,370.4,582.57,370.68,582.22,370.68z"/>
		</g>
		<g>
			<path class="st2" d="M598.96,368.31c-7.43-6.19-3.31-12.08-3.27-12.14c0.91,0.96-2.39,5.77,3.69,11
				C599.32,368.23,599.14,368.31,598.96,368.31z"/>
		</g>
		<g>
			<path class="st2" d="M593.96,344.65c-13.61-10.89-14.61-22.62-14.64-23.11c3.29-5.13,8.62-7.77,15.13-7.86
				c9.5,0,19.06,4.83,24.25,12.09c-5.94-6.07-15.3-10.79-23.91-10.79c-6.3,0.09-11.2,2.46-14.15,6.69
				c0.21,1.64,1.96,12.25,13.73,21.84C594.34,344.57,594.15,344.65,593.96,344.65z"/>
		</g>
	</g>
</g>
<rect x="-35.19" y="-110.36" class="st0" width="29.17" height="27.78"/>
<rect x="16.89" y="-106.19" class="st1" width="29.17" height="29.86"/>
</svg>
