<?xml version="1.0" encoding="utf-8"?>
<!-- Generator: Adobe Illustrator 23.0.3, SVG Export Plug-In . SVG Version: 6.00 Build 0)  -->
<svg version="1.1" id="Layer_1" xmlns="http://www.w3.org/2000/svg" xmlns:xlink="http://www.w3.org/1999/xlink" x="0px" y="0px"
	 viewBox="0 0 792 612" style="enable-background:new 0 0 792 612;" xml:space="preserve">
<style type="text/css">
	.st0{fill-rule:evenodd;clip-rule:evenodd;fill:#00E77F;}
	.st1{fill:#FFFFFF;}
	.st2{fill:#191919;}
	.st3{fill:#4B4B4B;}
	.st4{clip-path:url(#SVGID_1_);}
	.st5{clip-path:url(#SVGID_2_);}
	.st6{fill-rule:evenodd;clip-rule:evenodd;fill:#191919;}
	.st7{fill-rule:evenodd;clip-rule:evenodd;fill:#FFFFFF;}
	.st8{fill-rule:evenodd;clip-rule:evenodd;fill:#37474F;}
	.st9{fill-rule:evenodd;clip-rule:evenodd;fill:#BA42FF;}
	.st10{fill-rule:evenodd;clip-rule:evenodd;fill:#4B4B4B;}
</style>
<g>
	<g>
		<g>
			<path class="st0" d="M144.47,298.66c-17.36,80.48,36.96,179.37,105.92,199.45c195.44,56.92,408.82-91.38,391.15-295.67
				C629.62,64.5,492.37-13.83,456.99,170.58C439.52,261.59,181.93,124.96,144.47,298.66z"/>
		</g>
	</g>
	<g>
		<path class="st1" d="M238.81,131.72c0,0-2.31,2.12-2.03,8.26c0.24,5.18,2.29,6.85,2.29,6.85l-43.01-0.15l-2.16-7.96l5.51-7.82
			L238.81,131.72z"/>
		<path class="st2" d="M239.07,148.5c0,0-43.02-0.15-43.02-0.15c-0.65,0-1.21-0.48-1.4-1.18l-2.16-7.96
			c-0.14-0.53-0.05-1.11,0.26-1.54l5.51-7.82c0.29-0.41,0.71-0.63,1.18-0.63l39.41,0.82c0.62,0.01,1.17,0.46,1.37,1.13
			c0.2,0.65,0.02,1.38-0.44,1.82c-0.11,0.11-1.74,1.9-1.51,6.9c0.19,4.17,1.65,5.54,1.71,5.6c0.52,0.42,0.73,1.17,0.53,1.86
			C240.3,148.05,239.71,148.5,239.07,148.5z M197.15,145.01l39.13,0.14c-0.47-1.23-0.87-2.89-0.97-5.08
			c-0.14-3.02,0.3-5.21,0.85-6.73l-36.05-0.75l-4.57,6.48L197.15,145.01z"/>
	</g>
	<g>
		<g>
			<path class="st3" d="M203.55,145.28c-2.99,0-5.41-2.75-5.41-6.14c0-3.39,2.42-6.14,5.41-6.14h37.4c-0.48-2.5-2.45-4.38-4.8-4.38
				h-51.02c-5.14,0-9.31,4.73-9.31,10.57c0,5.84,4.17,10.57,9.31,10.57h51.02c2.38,0,4.37-1.93,4.82-4.48H203.55z"/>
		</g>
		<g>
			<path class="st2" d="M236.15,151.44h-51.02c-5.95,0-10.79-5.49-10.79-12.24c0-6.75,4.84-12.24,10.79-12.24h51.02
				c2.98,0,5.6,2.4,6.24,5.7c0.1,0.5-0.01,1.01-0.29,1.41c-0.28,0.39-0.7,0.62-1.15,0.62h-37.4c-2.17,0-3.93,2-3.93,4.47
				c0,2.46,1.76,4.46,3.93,4.46h37.42c0.44,0,0.86,0.22,1.14,0.61c0.28,0.39,0.39,0.9,0.31,1.39
				C241.82,148.99,239.18,151.44,236.15,151.44z M185.13,130.3c-4.32,0-7.84,3.99-7.84,8.9c0,4.9,3.52,8.89,7.84,8.89h51.02
				c0.93,0,1.79-0.43,2.42-1.13h-35.02c-3.79,0-6.88-3.5-6.88-7.81c0-4.31,3.09-7.81,6.88-7.81h34.92
				c-0.62-0.64-1.44-1.03-2.32-1.03H185.13z"/>
		</g>
	</g>
	<g>
		<g>
			<g>
				<path class="st1" d="M182.4,116.57c0,0,2.31,1.45,2.03,5.64c-0.24,3.54-2.29,4.68-2.29,4.68l43.02-0.1l2.16-5.44l-5.51-5.34
					L182.4,116.57z"/>
			</g>
		</g>
		<g>
			<g>
				<path class="st2" d="M182.14,128.56c-0.69,0-1.28-0.54-1.44-1.3c-0.16-0.76,0.17-1.54,0.79-1.88c0.03-0.02,1.31-0.84,1.47-3.3
					c0.2-2.99-1.24-4.03-1.3-4.07c-0.59-0.37-0.87-1.13-0.7-1.86c0.16-0.74,0.76-1.25,1.43-1.26l39.41-0.56
					c0.36,0.01,0.7,0.14,0.98,0.4l5.51,5.34c0.5,0.48,0.66,1.28,0.39,1.96l-2.16,5.44c-0.24,0.6-0.76,0.98-1.34,0.99L182.14,128.56
					C182.14,128.56,182.14,128.56,182.14,128.56z M185.37,118.2c0.39,1.06,0.64,2.42,0.53,4.14c-0.07,1.11-0.31,2.07-0.62,2.87
					l38.92-0.09l1.32-3.31l-4.24-4.11L185.37,118.2z"/>
			</g>
		</g>
	</g>
	<g>
		<path class="st1" d="M238.66,114.23h-53.97c-2.3,0-4.22,1.79-4.77,4.2h36.55c2.05,0,3.72,1.35,3.72,3.01
			c0,1.67-1.66,3.02-3.72,3.02h-36.55c0.54,2.42,2.47,4.21,4.77,4.21h53.97c3.51,0,6.36-3.23,6.36-7.22
			C245.02,117.46,242.17,114.23,238.66,114.23z"/>
		<path class="st2" d="M238.66,130.34h-53.97c-2.93,0-5.48-2.25-6.2-5.48c-0.11-0.5-0.01-1.03,0.27-1.44
			c0.28-0.41,0.71-0.64,1.16-0.64h36.55c1.37,0,2.24-0.8,2.24-1.34c0-0.53-0.89-1.34-2.24-1.34h-36.55c-0.46,0-0.89-0.24-1.16-0.65
			c-0.28-0.41-0.38-0.94-0.26-1.44c0.72-3.22,3.27-5.46,6.19-5.46h53.97c4.32,0,7.84,3.99,7.84,8.89
			C246.5,126.35,242.98,130.34,238.66,130.34z M182.53,126.13c0.6,0.54,1.35,0.86,2.16,0.86h53.97c2.69,0,4.89-2.49,4.89-5.54
			c0-3.06-2.19-5.55-4.89-5.55h-53.97c-0.8,0-1.55,0.32-2.15,0.85h33.93c2.91,0,5.19,2.06,5.19,4.68c0,2.63-2.28,4.69-5.19,4.69
			H182.53z"/>
	</g>
	<g>
		<g>
			<g>
				<path class="st1" d="M189.46,93.4c-0.2-0.04,2.37,2.23,2.56,8.18c0.19,6.09-2.82,9.38-2.82,9.38l43.02-0.17l4.59-11.25
					l-3.61-7.79L189.46,93.4z"/>
			</g>
		</g>
		<g>
			<g>
				<path class="st2" d="M189.2,112.64c-0.6,0-1.14-0.41-1.37-1.04c-0.23-0.63-0.09-1.36,0.34-1.83c0.1-0.11,2.53-2.91,2.37-8.12
					c-0.09-2.91-0.8-5.26-2.1-6.98c-0.66-0.87-0.52-1.61-0.28-2.09c0.26-0.52,0.74-0.84,1.25-0.85l43.74-1.64
					c0.57-0.01,1.09,0.33,1.35,0.89l3.61,7.79c0.21,0.46,0.23,1.01,0.03,1.48l-4.59,11.25c-0.24,0.59-0.76,0.97-1.33,0.97
					L189.2,112.64C189.21,112.64,189.2,112.64,189.2,112.64z M192.14,94.98c0.82,1.87,1.28,4.06,1.36,6.55
					c0.1,3.35-0.67,5.96-1.48,7.75l39.26-0.16l3.89-9.53l-2.84-6.13L192.14,94.98z"/>
			</g>
		</g>
	</g>
	<g>
		<g>
			<path class="st3" d="M236.65,89.66h-47.31c-1.63,0-2.95,1.93-2.95,4.33v0.74c0.06,0,0.11,0,0.17,0h39.52
				c3.48,0,6.29,3.2,6.29,7.14c0,3.95-2.82,7.14-6.29,7.14h-39.52c-0.06,0-0.11,0-0.17,0v0.9c0,2.39,1.32,4.32,2.95,4.32h47.31
				c4.62,0,8.37-5.5,8.37-12.29C245.02,95.16,241.28,89.66,236.65,89.66z"/>
		</g>
		<g>
			<path class="st2" d="M236.65,115.9h-47.31c-2.44,0-4.42-2.69-4.42-6V109c0-0.92,0.66-1.67,1.47-1.67c0.14,0,39.69,0,39.69,0
				c2.66,0,4.82-2.45,4.82-5.47c0-3.01-2.16-5.47-4.82-5.47l-39.69,0c-0.81,0-1.47-0.75-1.47-1.67v-0.74c0-3.31,1.98-6,4.42-6h47.31
				c5.43,0,9.84,6.26,9.84,13.96C246.5,109.64,242.08,115.9,236.65,115.9z M187.94,110.68c0.2,1.14,0.83,1.88,1.4,1.88h47.31
				c3.8,0,6.89-4.76,6.89-10.61c0-5.85-3.09-10.61-6.89-10.61h-47.31c-0.55,0-1.14,0.67-1.37,1.71h38.12c4.28,0,7.77,3.95,7.77,8.81
				c0,4.86-3.48,8.82-7.77,8.82H187.94z"/>
		</g>
	</g>
	<g>
		<g>
			<g>
				<path class="st1" d="M324.63,31.82h202.44c9.77,0,17.7,9,17.7,20.09v470.36c0,11.09-7.92,20.09-17.7,20.09H324.63
					c-9.78,0-17.7-8.99-17.7-20.09V51.9C306.93,40.81,314.85,31.82,324.63,31.82z"/>
			</g>
		</g>
		<g>
			<g>
				<path class="st2" d="M527.06,544.03H324.63c-10.57,0-19.17-9.76-19.17-21.76V51.9c0-12,8.6-21.76,19.17-21.76h202.44
					c10.57,0,19.17,9.76,19.17,21.76v470.36C546.24,534.26,537.63,544.03,527.06,544.03z M324.63,33.49
					c-8.95,0-16.22,8.26-16.22,18.41v470.36c0,10.15,7.28,18.41,16.22,18.41h202.44c8.95,0,16.22-8.26,16.22-18.41V51.9
					c0-10.15-7.28-18.41-16.22-18.41H324.63z"/>
			</g>
		</g>
	</g>
	<g>
		<defs>
			<path id="SVGID_5_" d="M335.44,55.74h180.81c9.77,0,17.7,9,17.7,20.09v398.39c0,11.09-7.92,20.09-17.7,20.09H335.44
				c-9.77,0-17.7-9-17.7-20.09V75.83C317.74,64.74,325.67,55.74,335.44,55.74z"/>
		</defs>
		<use xlink:href="#SVGID_5_"  style="overflow:visible;fill:#606060;"/>
		<clipPath id="SVGID_1_">
			<use xlink:href="#SVGID_5_"  style="overflow:visible;"/>
		</clipPath>
		<g class="st4">
			<rect x="287.2" y="49.12" class="st1" width="288.08" height="187.63"/>
		</g>
	</g>
	<g>
		<defs>
			<path id="SVGID_7_" d="M335.44,55.74h180.81c9.77,0,17.7,9,17.7,20.09v398.39c0,11.09-7.92,20.09-17.7,20.09H335.44
				c-9.77,0-17.7-9-17.7-20.09V75.83C317.74,64.74,325.67,55.74,335.44,55.74z"/>
		</defs>
		<clipPath id="SVGID_2_">
			<use xlink:href="#SVGID_7_"  style="overflow:visible;"/>
		</clipPath>
		<g class="st5">
			<g>
				<path class="st6" d="M301.82-37.45h248.06v176.49H301.82V-37.45z"/>
			</g>
		</g>
		<g class="st5">
			<g>
				<path class="st6" d="M301.82,149.57h248.06v75.9H301.82V149.57z"/>
			</g>
		</g>
		<g class="st5">
			<g>
				<path class="st6" d="M301.82,235.63h248.06v3.46H301.82V235.63z"/>
			</g>
		</g>
	</g>
	<g>
		<g>
			<g>
				<path class="st0" d="M480.76,254.43h30.67c6.52,0,11.8,5.99,11.8,13.39v34.82c0,7.4-5.28,13.39-11.8,13.39h-30.67
					c-6.52,0-11.8-5.99-11.8-13.39v-34.82C468.96,260.43,474.24,254.43,480.76,254.43z"/>
			</g>
		</g>
		<g>
			<path class="st7" d="M412.33,254.43H443c6.52,0,11.8,5.99,11.8,13.39v34.82c0,7.4-5.28,13.39-11.8,13.39h-30.67
				c-6.52,0-11.8-5.99-11.8-13.39v-34.82C400.53,260.43,405.81,254.43,412.33,254.43z"/>
		</g>
		<g>
			<g>
				<path class="st0" d="M342.82,254.43h30.68c6.52,0,11.8,5.99,11.8,13.39v34.82c0,7.4-5.28,13.39-11.8,13.39h-30.68
					c-6.52,0-11.8-5.99-11.8-13.39v-34.82C331.02,260.43,336.3,254.43,342.82,254.43z"/>
			</g>
		</g>
		<g>
			<path class="st7" d="M480.76,328.64h30.67c6.52,0,11.8,5.99,11.8,13.39v34.82c0,7.39-5.28,13.39-11.8,13.39h-30.67
				c-6.52,0-11.8-5.99-11.8-13.39v-34.82C468.96,334.64,474.24,328.64,480.76,328.64z"/>
		</g>
		<g>
			<g>
				<path class="st0" d="M412.33,328.64H443c6.52,0,11.8,5.99,11.8,13.39v34.82c0,7.39-5.28,13.39-11.8,13.39h-30.67
					c-6.52,0-11.8-5.99-11.8-13.39v-34.82C400.53,334.64,405.81,328.64,412.33,328.64z"/>
			</g>
		</g>
		<g>
			<g>
				<path class="st0" d="M342.82,328.64h30.68c6.52,0,11.8,5.99,11.8,13.39v34.82c0,7.39-5.28,13.39-11.8,13.39h-30.68
					c-6.52,0-11.8-5.99-11.8-13.39v-34.82C331.02,334.64,336.3,328.64,342.82,328.64z"/>
			</g>
		</g>
		<g>
			<path class="st7" d="M480.76,404.75h30.67c6.52,0,11.8,5.99,11.8,13.39v34.82c0,7.39-5.28,13.39-11.8,13.39h-30.67
				c-6.52,0-11.8-5.99-11.8-13.39v-34.82C468.96,410.74,474.24,404.75,480.76,404.75z"/>
		</g>
		<g>
			<g>
				<path class="st0" d="M412.33,404.75H443c6.52,0,11.8,5.99,11.8,13.39v34.82c0,7.39-5.28,13.39-11.8,13.39h-30.67
					c-6.52,0-11.8-5.99-11.8-13.39v-34.82C400.53,410.74,405.81,404.75,412.33,404.75z"/>
			</g>
		</g>
		<g>
			<path class="st7" d="M342.82,404.75h30.68c6.52,0,11.8,5.99,11.8,13.39v34.82c0,7.39-5.28,13.39-11.8,13.39h-30.68
				c-6.52,0-11.8-5.99-11.8-13.39v-34.82C331.02,410.74,336.3,404.75,342.82,404.75z"/>
		</g>
	</g>
	<g>
		<g>
			<path class="st8" d="M532.9,168.52l-2.56-0.84c0,0-6.79-2.41-9.74-2.01c-2.95,0.41-4.32,1.23-4.32,1.23l-22.42-0.89l-16.22-0.22
				c0,0-13.06-0.55-14.45-0.34c-1.39,0.22-3.83,0.34-3.83,0.34s-14.68-0.19-15.53,0.45c-0.85,0.63-2.16,2.79-2.16,2.79
				s-12.9-3.29-15.24-3.13c-2.34,0.16-4.52,1.45-4.52,1.45s-20.33,0.13-26.35,0.11c-6.02-0.01-16.22-1.12-16.22-1.12l-26.35,2.24
				l-11.9-0.89l-12.39,46.8c0,0,0.45,5.57,4.33,6.82c3.87,1.24,6.78-0.67,6.78-0.67l11.8-4.91c0,0-5.08,3.89,1.28,6.36
				c6.36,2.47,16.72-1.23,16.72-1.23s6.98,3.64,13.76,2.45c6.78-1.19,9.93-3.35,9.93-3.35s-1.82,3.43,3.34,3.46
				c5.17,0.03,8.56-2.57,8.56-2.57s2.38,3.01,9.93,2.34c7.55-0.67,9.73-2.24,9.73-2.24s1.41,3.37,7.57,2.57
				c6.16-0.8,12.49-2.12,12.49-2.12s1.75,1.83,8.45,1.34c6.71-0.49,10.13-1.9,10.13-1.9s5.64,2.89,12,2.24
				c6.36-0.67,11.21-3.02,11.21-3.02s0.77,3.46,5.51,2.68c4.74-0.77,6.59-2.46,6.59-2.46s5.58,3.01,11.6,2.68
				c6.03-0.32,8.45-1.67,8.45-1.67s1.19,1.2,6.1,0.56c4.91-0.64,7.96-0.99,7.96-0.99V168.52z"/>
		</g>
	</g>
	<g>
		<g>
			<g>
				<path class="st1" d="M527.8,134.57L527.61,80l-23.4,0.67l-6.69-1.56l-4.43,2.01l-11.4-2.35l-25.66-0.11l-7.08-1.01l-10.81,0.89
					l-17.21-0.67l-1.08,54.79c0,0,6.78,2.87,9.74,2.79c2.95-0.08,9.83-2.56,9.83-2.56s8.17,4.37,12.29,3.12
					c4.12-1.25,8.95-2.68,8.95-2.68s5.9,3.85,9.64,2.79c3.74-1.05,5.61-1.67,5.61-1.67s3.61,2.87,9.44,1.9
					c5.83-0.97,8.45-2.79,8.45-2.79s4.39,4.05,9.05,3.24C507.49,135.99,527.8,134.57,527.8,134.57z"/>
			</g>
			<g>
				<path class="st1" d="M389.99,119.86c0.75,0.85,0.75,3.42,1.51,4.28c1.51-8.56,9.05-14.55,2.26-23.11
					c-3.77-3.43-9.05-4.28-11.31-8.56c-3.4-6.93,4.83-10.4,7.6-16.65c-5.19-0.29-27.3-1.56-30.76-2.17c-3.93-0.69-5.6,2.56-5.6,2.56
					s-13.46-0.45-15.34-0.44c-1.88,0-1.1,50.51-0.79,54.68c0.31,4.17,8.65,4.57,8.65,4.57l5.6-1.34l6.1,0.45l23.01,0.33l13.27-1.23
					c0,0,0.17,0.3,0.45,0.79c-0.13-1.3-0.4-2.6-0.88-3.89C393,126.7,389.99,124.13,389.99,119.86z"/>
			</g>
			<g>
				<path class="st1" d="M420.06,78.77c-0.22,0-0.44,0-0.66,0C418.92,79.32,419.65,79.17,420.06,78.77z"/>
			</g>
			<g>
				<path class="st1" d="M420.15,77.92c-0.02,0.27-0.03,0.54-0.05,0.81C420.31,78.51,420.41,78.21,420.15,77.92z"/>
			</g>
			<g>
				<g>
					<path class="st1" d="M420.1,78.77c-0.45,0.4-1.18,0.55-0.7,0c0.22,0,0.44,0,0.66,0c0.06-0.31,0.07-0.58,0.09-0.85
						c0.26,0.3,0.16,0.59-0.05,0.81c2.71,0.04,5.41,0.04,8.12,0.04l-0.01-0.22l-6.88-12.39l-3.05-0.11l-1.38-1.89l-5.8,0.89
						l-2.36-7.7l-17.6,18.52c0,0-0.4-0.02-1.1-0.06c-2.77,6.25-11,9.72-7.6,16.65c2.26,4.28,7.54,5.14,11.31,8.56
						c6.79,8.56-0.75,14.55-2.26,23.11c-0.75-0.86-0.75-3.43-1.51-4.28c0,4.28,3.02,6.85,3.77,10.27c0.49,1.3,0.76,2.6,0.88,3.89
						c1.02,1.72,3.68,5.89,6.73,7.92c3.89,2.61,7.96-0.11,7.96-0.11l9.34-9.6l1.21-1.01C420.19,113.79,418.96,96.01,420.1,78.77z"/>
				</g>
				<g>
					<path class="st1" d="M420.1,78.77c-0.45,0.4-1.18,0.55-0.7,0c0.22,0,0.44,0,0.66,0c0.06-0.31,0.07-0.58,0.09-0.85
						c0.26,0.3,0.16,0.59-0.05,0.81c2.71,0.04,5.41,0.04,8.12,0.04l-0.01-0.22l-6.88-12.39l-3.05-0.11l-1.38-1.89l-5.8,0.89
						l-2.36-7.7l-17.6,18.52c0,0-0.4-0.02-1.1-0.06c-2.77,6.25-11,9.72-7.6,16.65c2.26,4.28,7.54,5.14,11.31,8.56
						c6.79,8.56-0.75,14.55-2.26,23.11c-0.75-0.86-0.75-3.43-1.51-4.28c0,4.28,3.02,6.85,3.77,10.27c0.49,1.3,0.76,2.6,0.88,3.89
						c1.02,1.72,3.68,5.89,6.73,7.92c3.89,2.61,7.96-0.11,7.96-0.11l9.34-9.6l1.21-1.01C420.19,113.79,418.96,96.01,420.1,78.77z"/>
				</g>
			</g>
			<g>
				<polygon class="st1" points="406.61,64.29 414.33,66.55 389.79,89.18 386.29,84.83 				"/>
			</g>
		</g>
		<g>
			<g>
				<path class="st8" d="M527.8,134.57L527.61,80l-23.4,0.67l-6.69-1.56l-4.43,2.01l-11.4-2.35l-25.66-0.11l-7.08-1.01l-10.81,0.89
					l-17.21-0.67l-1.08,54.79c0,0,6.78,2.87,9.74,2.79c2.95-0.08,9.83-2.56,9.83-2.56s8.17,4.37,12.29,3.12
					c4.12-1.25,8.95-2.68,8.95-2.68s5.9,3.85,9.64,2.79c3.74-1.05,5.61-1.67,5.61-1.67s3.61,2.87,9.44,1.9
					c5.83-0.97,8.45-2.79,8.45-2.79s4.39,4.05,9.05,3.24C507.49,135.99,527.8,134.57,527.8,134.57z"/>
			</g>
			<g>
				<path class="st8" d="M389.99,119.86c0.75,0.85,0.75,3.42,1.51,4.28c1.51-8.56,9.05-14.55,2.26-23.11
					c-3.77-3.43-9.05-4.28-11.31-8.56c-3.4-6.93,4.83-10.4,7.6-16.65c-5.19-0.29-27.3-1.56-30.76-2.17c-3.93-0.69-5.6,2.56-5.6,2.56
					s-13.46-0.45-15.34-0.44c-1.88,0-1.1,50.51-0.79,54.68c0.31,4.17,8.65,4.57,8.65,4.57l5.6-1.34l6.1,0.45l23.01,0.33l13.27-1.23
					c0,0,0.17,0.3,0.45,0.79c-0.13-1.3-0.4-2.6-0.88-3.89C393,126.7,389.99,124.13,389.99,119.86z"/>
			</g>
			<g>
				<path class="st9" d="M420.06,78.77c-0.22,0-0.44,0-0.66,0C418.92,79.32,419.65,79.17,420.06,78.77z"/>
			</g>
			<g>
				<path class="st9" d="M420.15,77.92c-0.02,0.27-0.03,0.54-0.05,0.81C420.31,78.51,420.41,78.21,420.15,77.92z"/>
			</g>
			<g>
				<g>
					<path class="st10" d="M420.1,78.77c-0.45,0.4-1.18,0.55-0.7,0c0.22,0,0.44,0,0.66,0c0.06-0.31,0.07-0.58,0.09-0.85
						c0.26,0.3,0.16,0.59-0.05,0.81c2.71,0.04,5.41,0.04,8.12,0.04l-0.01-0.22l-6.88-12.39l-3.05-0.11l-1.38-1.89l-5.8,0.89
						l-2.36-7.7l-17.6,18.52c0,0-0.4-0.02-1.1-0.06c-2.77,6.25-11,9.72-7.6,16.65c2.26,4.28,7.54,5.14,11.31,8.56
						c6.79,8.56-0.75,14.55-2.26,23.11c-0.75-0.86-0.75-3.43-1.51-4.28c0,4.28,3.02,6.85,3.77,10.27c0.49,1.3,0.76,2.6,0.88,3.89
						c1.02,1.72,3.68,5.89,6.73,7.92c3.89,2.61,7.96-0.11,7.96-0.11l9.34-9.6l1.21-1.01C420.19,113.79,418.96,96.01,420.1,78.77z"/>
				</g>
			</g>
			<g>
				<polygon class="st7" points="406.61,64.29 414.33,66.55 389.79,89.18 386.29,84.83 				"/>
			</g>
		</g>
	</g>
	<g>
		<g>
			<path class="st2" d="M532.78,165.68c-3.73,0.13-8.11-2.32-12.48-1.79c-1.01,0.12-1.76,0.86-2.75,1
				c-1.12,0.16-3.47,0.01-4.72-0.22c-0.78-0.15-1.43-0.69-2.56-0.78c-6.08-0.45-14.62,0.73-21.23,0.45c-4.8-0.21-9.78,0.67-14.55,0
				c-0.95-0.13-1.78-0.5-2.66-0.56c-2.28-0.15-5.88-0.21-8.06,0.33c-0.59,0.15-1.23,0.8-1.97,0.89c-1.38,0.18-3.12-0.32-4.72-0.45
				c-1.59-0.12-3.27-0.32-4.82-0.33c-2.68-0.02-5.9-0.39-8.26,0.56c-0.87,0.35-1.43,1.7-2.26,1.9c-0.85,0.2-2.26-0.33-3.34-0.45
				c-1.18-0.13-2.42-0.15-3.44-0.34c-2.39-0.43-5.02-1.56-7.77-1.34c-1.23,0.1-2.14,0.83-3.25,1c-1.07,0.17-3.43,0.05-4.72-0.22
				c-0.99-0.21-1.87-0.7-2.95-0.78c-2.82-0.2-5.98,0.11-9.14,0.11c-2.88,0-5.84,0.33-8.75,0.45c-2.91,0.11-5.9-0.18-8.85,0.11
				c-1.46,0.14-2.96,0.07-4.42,0c-1.52-0.08-3.06,0-4.33-0.22c-0.56-0.1-1.12-0.39-1.67-0.45c-1.52-0.16-3.21,0-4.72,0
				c-1.56,0-3.2-0.03-4.43,0.33c-0.59,0.17-1.16,0.7-1.77,0.79c-1.48,0.2-3.25-0.22-4.72-0.34c-2.95-0.23-5.92-0.41-9.44-0.22
				c-3.48,0.18-5.92,0.57-6.29,4.58c-0.31,3.41,0.17,7.43,0.29,11.27c0.36,10.75,0.96,22.73,1.28,33.03
				c-2.5,1.1-5.04,2.76-7.37,3.68c1.14-4.95,2.07-10.1,3.24-15.4c0.32-1.46,1.33-5.01-1.38-4.35c-1.16,0.28-1.55,3.37-1.87,4.91
				c-1.15,5.59-2.46,11.92-3.64,16.96c-3.52,1.63-6.83-0.65-7.86-3.57c1.72-7.87,3.71-16.48,5.6-25c0.43-1.93,1.31-5.15-0.98-5.02
				c-1.74,0.1-2.08,4.65-2.56,6.81c-1.49,6.7-2.84,12.64-4.32,19.41c-0.26,1.17-1.07,3.18-0.79,4.13c1.44,4.76,5.84,8.93,11.5,6.7
				c1.73-0.68,3.54-1.99,5.31-2.9c1.91-0.99,3.72-1.96,5.31-2.57c0.16,1.48-0.13,3.89,0.49,5.02c0.94,1.71,4.95,2.76,7.08,2.9
				c3.75,0.26,7.13-0.79,10.62-1.34c1.16-0.18,2.52-0.63,3.44-0.56c0.74,0.06,1.57,0.63,2.36,0.89c5.71,1.87,13.83,0.29,18.68-1.56
				c2.92,3.19,9.96,2.34,13.66,0.56c5.26,3.25,13.98,1.49,19.56-0.22c2.63,1.73,6.23,2.36,9.93,1.45c1.06-0.26,2.04-0.87,3.05-1.01
				c2.3-0.31,4.72,0.68,5.41-1.45c1.56,1.12,3.18,1.82,5.01,2.23c2.1,0.47,4.08,0.1,6.39,0c0.46-0.02,1.08,0.19,1.57,0.11
				c0.48-0.08,0.97-0.53,1.48-0.67c0.91-0.25,2.16-0.26,3.34-0.45c1.18-0.18,2.39-0.64,3.24-0.56c0.74,0.08,1.6,0.66,2.36,0.89
				c5.85,1.83,13.21,0.32,18.48-1.56c2.18,2.44,7.51,2.44,11.01,1.45c0.9-0.25,1.99-0.92,2.75-0.89c0.5,0.02,1.19,0.56,1.77,0.78
				c5.54,2.09,12.28,0.5,17.89-1c1.42,0.78,2.97,1.58,4.82,1.78c3.08,0.33,6.16-0.85,8.85-1.45c0-1.26,0-2.53,0-3.79
				c-0.36-0.07-0.98,0.14-1.18-0.11c-0.49-16.85-0.99-33.69-1.48-50.54c0.89,0.1,1.84,0.14,2.65,0.33
				C532.78,167.91,532.78,166.8,532.78,165.68z M352.98,220.58c-0.38-8.54-0.63-17.19-0.98-25.78c-0.35-8.56-0.94-17.1-0.69-25.55
				c2.57-0.45,6.66-0.76,9.24-0.11c0.58,4.11,0.38,8.49,0.49,12.83c0.32,12.98,0.01,26.48,0.2,39.61
				C358.45,222.33,354.91,221.81,352.98,220.58z M364.67,221.02c-0.37-17.17,0.07-35.26-0.69-52c-0.01-0.15-0.02-0.31,0.1-0.33
				c0.99,0.03,1.9,0.15,2.85,0.22c0.12,17.23,1.22,34.32,1.77,51.44C367.45,220.68,366,220.78,364.67,221.02z M402.23,168.25
				c-0.54,7.24,0.38,15.5,0.49,23.1c-1.42-7.47-2.53-15.28-3.83-22.87C399.92,168.3,401.07,168.27,402.23,168.25z M372.05,220.13
				c-0.39-8.54-0.63-17.17-0.98-25.78c-0.36-8.54-0.95-17.1-0.69-25.55c2.45-0.63,6.45-0.6,9.14-0.22c0.61,2.03,0.47,4.31,0.49,6.47
				c0.14,15.51,1.51,31.24,1.97,46.64C378.15,222.16,374.63,221.44,372.05,220.13z M385.32,221.02c-0.85-17.3-1.68-35.21-2.16-52.56
				c0.33,0,0.66,0,0.98,0c-0.33,1.05-0.5,2.21-0.39,3.8c0.26,3.9,1.23,7.98,1.87,11.94c1.86,11.61,4.03,23.75,5.9,35.26
				C389.53,220.01,387.3,220.86,385.32,221.02z M403.8,220.46c-2.18,1.01-6.04,1.45-8.55,0.45c-2.15-12.53-4.39-24.94-6.39-37.72
				c-0.65-4.19-1.63-8.46-1.67-12.83c1.48-1.89,5.42-1.57,8.36-1.45c1.88,11.38,3.78,22.98,5.7,34.59
				c0.64,3.84,0.96,7.84,1.87,11.49c0.13,0.52,0.48,1.04,0.59,1.56C403.99,217.91,403.69,219.26,403.8,220.46z M407.24,219.68
				c-0.58-16.65-1.81-33.86-1.67-50.77c3.18-0.74,8.11-0.57,11.5-0.34c0.35,17.65,0.78,35.19,1.28,52.66
				C414.76,222.03,409.25,222.28,407.24,219.68z M421.59,220.46c-0.3-17.25-0.86-34.21-1.18-51.44c-0.01-0.15-0.02-0.31,0.1-0.33
				c0.45,0.27,1.43-0.06,1.87,0.22c-0.1,16.52,1.19,34.27,1.67,51.21C423.18,220.13,422.26,220.61,421.59,220.46z M427.49,220.35
				c-0.59-12.65-1.18-25.78-1.57-38.72c-0.13-4.31-0.61-8.57-0.1-12.72c2.09-1.2,5.36-0.15,7.37,0.45
				c0.46,17.29,1.04,34.45,1.48,51.77C432.32,221.91,429.2,221.55,427.49,220.35z M441.75,220.13c-1.12-0.09-2.66,0.07-3.74,0
				c-0.49-16.82-0.97-33.64-1.48-50.43c-0.01-0.16-0.02-0.31,0.1-0.33c1.53,0.23,3.13,0.4,4.72,0.56
				c0.44,17.02,1.27,33.6,1.87,50.43C442.94,220.45,442.39,220.19,441.75,220.13z M446.56,219.91c-0.37-8.54-0.63-17.19-0.98-25.78
				c-0.35-8.56-0.94-17.1-0.69-25.55c2.5-0.66,6.7-0.67,9.24-0.22c0.6,4.12,0.35,8.44,0.49,12.83c0.43,12.99-0.08,26.57,0.2,39.72
				C451.98,221.62,448.6,221.1,446.56,219.91z M458.16,220.24c-0.07-17.43-0.05-35.58-0.49-52.22c1.01,0,1.97,0.07,2.85,0.22
				c0.12,17.23,1.22,34.32,1.77,51.44C460.98,219.87,459.34,220.27,458.16,220.24z M495.81,167.58c-0.55,7.24,0.4,15.5,0.49,23.1
				c-1.4-7.52-2.56-15.32-3.83-22.98C493.64,167.71,494.59,167.49,495.81,167.58z M465.64,219.35c-0.39-8.5-0.63-17.1-0.98-25.66
				c-0.35-8.55-0.95-17.1-0.69-25.55c2.48-0.66,6.71-0.69,9.24-0.22c0.55,4.34,0.44,8.84,0.59,13.28
				c0.43,13.16,1.23,26.63,1.77,39.84C471.73,221.42,468.15,220.81,465.64,219.35z M478.91,220.35
				c-0.84-17.31-1.69-35.21-2.16-52.56c0.26,0,0.52,0,0.79,0c0.08,0.75-0.29,1.97-0.2,3.57c0.22,3.87,1.21,7.94,1.87,11.94
				c1.91,11.63,3.96,24.01,5.9,35.48C483.03,219.3,481.18,220.07,478.91,220.35z M488.84,220.24c-2.18-12.53-4.35-24.95-6.39-37.71
				c-0.67-4.2-1.61-8.46-1.67-12.83c1.47-2.01,5.23-1.43,8.36-1.56c1.81,11.48,3.85,23.03,5.7,34.7c0.61,3.85,0.95,7.85,1.87,11.49
				c0.15,0.58,0.47,1,0.59,1.56c0.27,1.25-0.08,2.68,0.2,3.79C495.28,220.8,491.47,221.21,488.84,220.24z M500.83,219.01
				c-0.58-16.65-1.81-33.86-1.67-50.77c3.16-0.81,7.84-0.46,11.4-0.45c0.5,17.44,0.95,35.52,1.28,52.78
				C508.28,221.27,502.75,221.53,500.83,219.01z M515.18,219.79c-0.3-17.25-0.86-34.21-1.18-51.44c-0.01-0.15-0.02-0.31,0.1-0.33
				c0.72-0.07,1.14,0.2,1.87,0.11c-0.09,16.92,1.18,34.21,1.67,51.21C516.86,219.54,516.11,219.78,515.18,219.79z M520.98,219.57
				c-0.45-12.81-1.05-25.79-1.47-38.72c-0.14-4.23-0.61-8.5-0.1-12.61c2.04-1.27,5.31-0.11,7.37,0.33
				c0.46,17.34,1.04,34.53,1.47,51.88C525.87,221.13,522.55,220.85,520.98,219.57z"/>
		</g>
		<g>
			<path class="st2" d="M341.57,173.71c-0.69-1.56-2.8-0.82-2.95,0.56c-0.22,2.03,2.42,2.74,3.05,0.67
				c0.91,1.66,2.95,0.81,2.85-0.89C344.42,172.21,341.96,172.08,341.57,173.71z"/>
		</g>
		<g>
			<path class="st2" d="M335.87,131.65c0.29,1.19,1.43,2.6,2.26,3.12c1.86,1.18,5.97,2.17,8.65,1.9c0.92-0.1,1.16-0.51,1.77-0.79
				c1.4-0.63,2.74-0.98,3.93-1.56c0.41,0.1,0.67,0.7,1.18,0.89c0.3,0.11,0.7,0,1.08,0.11c0.29,0.08,0.57,0.33,0.88,0.45
				c2,0.73,7.97,0.84,9.83,0c0.72-0.32,1.7-1.65,1.87-2.23c0.5-1.7,0.1-4.57,0.1-6.92c0-16.52-0.08-34.22,0.1-49.76
				c6.68,0,13.37,0,20.05,0c-1.29,1.49-2.79,2.85-4.42,4.46c-1.2,1.19-3.63,3.19-4.23,4.91c-0.03,1.71,0.19,3.13,0.39,4.58
				c0.11,0.67-1.01,1.68-0.3,2.67c4.46,12.46,8.48,22.07,12.86,34.62c-0.02,0.21-0.74,2.32-0.75,2.52
				c-2.26,0.51-5.66,0.34-4.93,3.59c0.56,2.49,5.85-0.11,7.67,0.67c0.38,1.03,0.81,1.98,1.08,3.13c0.15,0.54,0.35,1.01,0.69,1.34
				c0.18,0.4,0.48,0.65,0.59,1.12c0.77,1.2,1.61,2.34,2.75,3.13c0.37,0.07,0.58,0.31,0.89,0.45c0.35,0.31,0.86,0.44,1.38,0.56
				c0.88,0.11,1.66,0.35,2.56,0.45c0.49,0.18,1.67,0.18,2.16,0c0.81-0.12,1.54-0.34,2.26-0.56c0.47-0.21,0.97-0.39,1.28-0.78
				c0.89-0.55,1.6-1.31,2.46-1.89c2.41-2.43,4.43-5.31,6.68-7.92c0.21,0.69,0.8,1.16,1.28,1.45c5.53,3.38,13.58,1.25,20.05,0.33
				c5.4,3.36,15.12,1.87,20.84-0.11c2.15,2.28,7.03,2.78,10.62,1.9c1.06-0.26,2.22-1.07,3.15-1c0.57,0.04,1.41,0.63,2.07,0.89
				c5.51,2.15,12.17,0.66,17.5-0.67c1.58,0.9,3.43,1.84,5.8,2.01c1.95,0.13,3.74-0.58,5.7-0.78c6.49-0.68,14.1,0.58,19.96,0
				c1.69-0.17,2.84-0.79,3.34-2.35c0.18-15.24,0.1-31.77,0.1-47.19c0-4.83,0.8-9.55-3.05-9.82c-3.41-0.24-7.09,0.27-10.72,0.33
				c-1.73,0.03-3.54,0.14-5.31,0.23c-1.81,0.09-3.8,0.33-5.51,0.11c-2.79-0.36-5.05-1.82-8.36-1.34c-0.84,0.12-1.56,0.79-2.36,0.89
				c-0.59,0.07-1.44-0.16-2.26-0.22c-0.8-0.06-1.78,0.04-2.46-0.11c-0.97-0.21-1.96-0.81-3.24-0.89c-5.3-0.33-11.54,0.11-17.79,0.11
				c-2.92,0-5.76-0.18-8.65,0c-1.4,0.08-2.92-0.14-4.33-0.23c-1.54-0.1-3.06,0-4.32-0.22c-0.94-0.16-1.77-0.59-2.75-0.67
				c-1.05-0.08-2.1,0.11-3.24,0.11c-1.78-0.01-3.44-0.26-4.92,0.11c-0.64,0.16-1.11,0.7-1.77,0.78c-0.98,0.12-2.32-0.31-3.54-0.45
				c-2.62-0.29-5.06-0.41-7.37-0.56c-0.28-0.91-0.59-1.78-1.08-2.45c-0.22-0.57-0.52-1.04-0.69-1.67c-0.61-1.24-1.05-2.68-1.77-3.8
				c-0.15-0.42-0.4-0.74-0.49-1.22c-0.37-0.77-0.66-1.64-1.08-2.35c-0.35-1.17-0.77-1.49-1.57-1.45c-0.94,0.05-1.47,1.37-1.87,0.89
				c-0.24-0.56-0.64-0.81-0.98-1.12c-0.14,0.01-0.22-0.05-0.3-0.11c-0.28-0.14-1.1-0.23-1.28-0.11c-1.09,0.32-2.13,0.71-3.64,0.56
				c-0.15-0.54-0.35-1.01-0.69-1.34c-0.65-1.22-1.4-2.35-1.97-3.68c-0.32-0.6-0.66-1.19-1.47-1.23c-0.45,0.05-0.81,0.2-1.18,0.34
				c-0.71,0.65-1.48,1.21-2.07,2.01c-1.26,1.18-2.57,2.17-3.64,3.46c-2.12,2.4-4.53,4.34-6.59,6.7c-0.78,0.38-1.32,1.11-1.86,1.81
				c0.28-0.28,0.55-0.57,0.83-0.85c-0.28,0.28-0.55,0.57-0.83,0.85c-0.45,0.46-0.9,0.92-1.36,1.38c-0.2,0.13-0.39,0.22-0.61,0.27
				c-1.64,0.41-3.97,0-6.1,0c-5.91,0-13-0.42-18.48,0c-2.48,0.19-4.91,0-8.06,0c-1.72,0-3.85-0.22-4.82,0.22
				c-0.65,0.3-0.78,1.07-1.28,1.67c-4.62,0-9.24,0-13.86,0c-1.02,0.93-1.96,1.5-2.36,2.79c-0.45,1.46-0.2,4.06-0.2,6.47
				c0,13.6,0,26.99,0,40.39C335.77,127.44,335.48,130.04,335.87,131.65z M525.21,82.11c0.15-0.02,0.24-0.16,0.39-0.11
				c0.59,0.19,0.39,1.51,0.39,2.9c0,15.99,0,34.14,0,49.43c-6.2,0.26-12.81,0.04-19.17,0.11c-0.28-17.13-0.39-34.45-0.59-51.66
				C512.12,81.96,519.03,82.74,525.21,82.11z M496.21,81.77c2.55-0.93,4.69,0.73,6.68,0.89c0.13,17.26,0.45,34.9,0.49,51.88
				c-2.47,0.74-5.41,0.15-7.18-0.89c-0.38-13.97-0.66-31.07-0.98-46.19C495.17,85.02,494.95,82.23,496.21,81.77z M490.21,81.77
				c0.52,0.19,1.38,0,1.87,0.23c-0.34,16.86,0.5,34.32,0.79,51.21c-0.79,0.19-1.67,0.26-2.46,0.45c-0.11-17.16-0.24-34.32-0.3-51.55
				C490.1,81.95,490.1,81.79,490.21,81.77z M475.96,81.32c1.62-0.43,3.79,0,5.5,0c1.81,0,3.61-0.16,5.31,0.23
				c0.04,17.61,0.18,35.13,0.3,52.66c-3.7,0.8-9.15,0.76-11.11-1.78c-0.29-14.55-0.68-29.94-0.89-45.19
				C475.05,85.26,474.49,81.72,475.96,81.32z M471.93,80.88c-0.62,7.22,0.12,15.58,0.1,23.21c-1.28-7.55-2.24-15.46-3.44-23.1
				C469.64,80.89,470.75,80.85,471.93,80.88z M456.89,82.67c0.85-2.01,5.92-1.3,8.36-1.34c1.76,11.48,3.3,23.09,5.01,34.7
				c0.57,3.84,0.9,7.79,1.67,11.49c0.14,0.66,0.46,1.06,0.59,1.67c0.25,1.22,0,2.71,0.1,3.91c-2.39,1-6.18,1.4-8.65,0.22
				c-2.1-13.96-4.53-29.49-6.59-44.3C457.17,87.54,456.34,83.95,456.89,82.67z M452.95,80.66c0.23,0,0.46,0,0.69,0
				c0.24,0.69-0.27,1.7-0.3,2.68c-0.05,1.98,0.49,4.13,0.79,6.25c1.98,14.04,4.06,28.54,6.19,42.18c-1.93,0.68-4.01,1.18-6.19,1.56
				c-0.66-17.18-1.01-34.7-1.28-52.33C452.85,80.83,452.84,80.68,452.95,80.66z M440.17,80.66c2.67-0.45,6.63-0.58,9.14,0.11
				c0.5,2.11,0.3,4.39,0.3,6.58c0,15.43,0.8,31.24,1.18,46.42c-3.87,0.48-7.45-0.32-9.93-1.79c-0.47-14.82-0.56-29.99-0.98-45.07
				C439.82,84.81,439.7,82.66,440.17,80.66z M433.78,80.43c1.03-0.02,1.82,0.24,2.85,0.22c-0.11,17.2,0.54,34.49,0.89,51.55
				c-1.34,0.23-2.75,0.37-4.13,0.56C433.49,115.43,434.03,97.41,433.78,80.43z M430.25,80.77c0.55,4.18,0.31,8.6,0.2,12.94
				c-0.36,13.05-0.05,26.43-0.39,39.5c-2.89,0.75-6.19,0.06-8.26-1.11c-0.47-14.86-0.56-30.07-0.98-45.19
				c-0.06-2.09-0.18-4.26,0.29-6.25C423.77,80.21,427.73,80.08,430.25,80.77z M419.83,68.27c0.07,0,0.13,0,0.2,0
				c-0.02,0.21,0.11,0.25,0.1,0.45c0.58,1.16,0.98,2.53,1.67,3.57c0.22,0.57,0.53,1.04,0.69,1.67c0.32,0.83,0.93,1.93,1.08,2.57
				c-2.1-0.21-4.66,0.58-5.51,2.34c-0.92,1.91-0.68,5.41-0.59,8.37c0.4,13.02,0.26,25.9,0.79,38.72c0.04,1.06,0.33,2.24,0.2,2.9
				c-0.12,0.58-1.29,1.73-1.87,2.45c-2.81,3.48-5.23,6.77-8.35,9.37c-0.25,0.16-0.44,0.39-0.79,0.45c-0.35,0.16-0.75,0.26-1.08,0.45
				c-2.08,0.46-4.57-0.04-5.99-1c-0.67-0.73-1.25-1.56-1.87-2.34c0-0.22-0.27-0.14-0.2-0.45c-0.2-0.36-0.36-0.78-0.59-1.11
				c-5.08-14.02-10.13-28.08-15.14-42.18c0.95,0.19,1.93,0.34,2.95,0.45c0.62,0.19,1.93,0.19,2.56,0c1.32-0.1,2.5-0.36,3.54-0.78
				c0.41-0.17,0.84-0.31,1.08-0.67c0.42-0.26,0.75-0.63,1.28-0.78c4.45,14.06,9.21,27.77,13.66,41.84c0.22,2.4,3.98,1.38,2.85-1
				c-4.66-14.17-9.39-28.25-13.96-42.51c0.02-0.21-0.11-0.25-0.1-0.45c0.77-0.85,1.68-1.56,2.48-2.38c1.31-1.28,1.82-1.97,2.53-2.42
				c2.93-2.85,6.01-5.53,8.85-8.48c0.45-0.34,0.75-0.86,1.28-1.11C414.3,73.53,417.18,71.03,419.83,68.27z M411.86,70.61
				c0.42-0.34,0.85-0.56,1.08-1c0.42-0.34,0.85-0.56,1.08-1c0.42-0.34,0.85-0.56,1.08-1c0.38-0.27,0.6-0.73,1.08-0.89
				c0.4,0.49-0.77,1.4-1.18,1.79c-1.6,1.52-3.65,3.2-4.92,4.69c-0.64,0.53-1.15,1.22-1.87,1.67c-2.74,2.66-5.61,5.16-8.26,7.92
				c-0.64,0.54-1.15,1.22-1.87,1.68c-1.33,1.31-2.78,2.5-4.03,3.91c-0.49,0.18-0.74,0.53-0.98,0.89c-0.54,0.39-1.1,0.65-1.48,1.12
				c-0.51,0.27-1.02,0.44-1.38,0.78c-2.03,0.72-5.87,0.68-7.67-0.22c-0.36-0.71-0.61-1.54-0.59-2.68c-0.19-1.11,0.34-1.4,0.69-1.9
				c-0.02,0.99,0.46,1.3,0.88,1.67c0.13,0,0.26,0,0.39,0c0.63-0.03,1.06-0.29,1.77-0.22c0.39,0,0.79,0,1.18,0
				c0.42,0.26,0.81,0.46,1.08,0.78c0.12,0.31,0.29,0.57,0.3,1c1.13,3.7,4.32-1.35,5.7-2.35c0.42-0.34,0.85-0.56,1.08-1
				c0.42-0.34,0.85-0.56,1.08-1c0.42-0.34,0.85-0.56,1.08-1c0.42-0.34,0.85-0.56,1.08-1c0.42-0.34,0.85-0.56,1.08-1
				c0.42-0.34,0.85-0.56,1.08-1c0.42-0.34,0.85-0.56,1.08-1c0.42-0.34,0.85-0.57,1.08-1c0.42-0.34,0.85-0.57,1.08-1
				c0.42-0.35,0.85-0.57,1.08-1c0.78-0.68,1.57-1.23,2.16-2.01c0.98-0.87,1.97-1.6,2.75-2.57c0.42-0.34,0.85-0.56,1.08-1.01
				C411.2,71.28,411.63,71.06,411.86,70.61z M407.93,62.14c-0.01,0.25-0.42,0.05-0.59,0.11C407.44,61.88,407.74,61.87,407.93,62.14z
				 M398.59,74.52c0.94-1.05,2.02-1.72,2.75-2.79c0.94-1.05,2.02-1.73,2.75-2.79c1.1-0.94,1.98-2.03,3.05-2.9
				c0.17,0.1,0.29,0.27,0.49,0.33c1.05,0.53,2.33,0.78,3.83,0.78c0.37,0.16-0.51,0.73-0.79,0.89c-0.32,0.34-0.75,0.56-0.98,1
				c-0.42,0.34-0.85,0.56-1.08,1c-1.69,1.54-3.41,2.94-4.92,4.58c-0.78,0.67-1.57,1.23-2.16,2.01c-0.42,0.34-0.85,0.56-1.08,1
				c-0.42,0.34-0.85,0.56-1.08,1c-0.42,0.34-0.85,0.56-1.08,1c-0.42,0.34-0.85,0.56-1.08,1c-0.42,0.34-0.85,0.56-1.08,1
				c-0.42,0.34-0.85,0.56-1.08,1c-0.42,0.34-0.85,0.56-1.08,1c-0.42,0.34-0.85,0.56-1.08,1c-0.44,0.35-0.92,0.71-1.48,1.23
				c-0.17,0.16-0.47,0.54-0.75,0.84c0.19-0.16,0.37-0.32,0.56-0.48c-0.18,0.16-0.37,0.32-0.56,0.48c-0.16,0.13-0.32,0.26-0.48,0.38
				c-0.05,0.04-0.1,0.07-0.15,0.11c0.05-0.04,0.1-0.07,0.15-0.11c-0.11-0.01-0.19-0.11-0.29-0.26c-0.03-0.06-0.07-0.11-0.11-0.17
				c-0.25-0.42-0.58-1.01-0.94-1.02c-0.28-0.27-0.61-0.27-0.69-0.56c0.27-0.21,0.5-0.47,0.69-0.78c0.88-0.97,1.88-1.59,2.56-2.57
				c0.94-0.87,1.74-1.89,2.75-2.67C395.6,77.45,397.27,76.18,398.59,74.52z M397.61,71.73c-1.44,1.49-2.99,2.86-4.33,4.47
				c-1.23,1.17-2.33,2.48-3.64,3.57c-1.67,1.68-3.35,3.34-5.01,5.02c-0.08,0.06-0.16,0.12-0.3,0.11
				C388.65,80.46,393.3,75.81,397.61,71.73z M391.51,73.16c-1.75,1.77-3.55,3.57-5.37,5.38C387.96,76.73,389.75,74.93,391.51,73.16z
				 M355.73,76.86c2.75,0.18,6.18-0.39,8.45,0.34c0.39,17.79,0.2,36.92,0.1,55.01c-2.15,0.86-6.76,0.93-8.65-0.22
				c0-18.26,0-36.52,0-54.78C355.62,77.04,355.62,76.88,355.73,76.86z M349.54,125.62c0-15.24,0-31.17,0-46.52
				c-0.01-0.16-0.02-0.32,0.1-0.34c0.95,0,1.9,0,2.85,0c0,17.33,0,34.66,0,51.99c-1.2,0.28-2.2,0.77-3.24,1.23
				C349.76,129.97,349.54,127.74,349.54,125.62z M339.21,78.98c1.28-0.96,5.46,0.26,7.27-0.22c0,14.63,0,30.66,0,45.86
				c0,2.5-0.49,6.53,0.59,7.59c0.26,0.26,0.71,0.16,0.79,0.56c-3.25,0.84-7.35,0.01-9.04-2.01c0-14.76,0-30.29,0-45.63
				C338.82,83.55,338.57,79.47,339.21,78.98z"/>
		</g>
	</g>
	<g>
		<g>
			<path class="st7" d="M292.62,99.07c0,0-1.99,11.55-1.77,13.5c0.22,1.95-0.69,6.35,1.97,5.13c2.66-1.22,17.18-8.89,27.53,2.23
				c10.35,11.12,34.11,46.31,34.11,46.31l15.14-38.16c0,0-1.19-41.2,0.2-43.3c1.39-2.09,8.67-5.13,11.01-4.69
				c2.34,0.45,5.64,3.16,3.44,5.02c-2.2,1.86-7.77,2.9-7.77,2.9l-1.28,7.25c0,0,7.41-4.13,13.67,2.01
				c6.25,6.15,8.37,9.25,7.87,12.17c-0.51,2.92-2.08,8.28-3.34,8.81c-1.26,0.54-3.44,0.11-3.44,0.11s3.44,7.45,0,11.82
				c-3.44,4.38-3.93,5.14-3.93,5.14s-13.87,60.21-14.85,62.15c-0.98,1.95-4.65,11.66-14.55,9.48c-9.9-2.17-33.72-33.25-33.72-33.25
				s-0.03,3.99-3.54,7.7c-3.51,3.71-12.59,8.48-12.59,8.48l-7.96,17.07c0,0,5.42,37.16,13.76,62.38
				c8.34,25.22,27.3,90.3,29.89,98.98c2.59,8.69,2.89,23.65-3.15,31.47c-2.44,3.16-9.52,8.18-16.12,9.04
				c-9.73,1.27-19.37-2.57-19.37-2.57l10.91,38.84c0,0,3.12-2.97,7.08,6.69c3.96,9.67,5.86,18.55,4.62,21.2
				c-1.24,2.66-2.06,3.35-2.06,3.35l6.49,28.12l4.92,3.8l5.7-5.25c0,0,5.45-10.29,11.8-12.83c6.35-2.54,12.59-2.08,15.93,4.58
				c3.34,6.65,3.52,18.71-0.2,25.55c-3.72,6.84-27.94,38.52-28.91,39.39c-0.96,0.88-11.31,8.1-17.8,3.68
				c-6.48-4.41-6.1-6.47-6.1-6.47l-10.91-32.48l-13.27-30.02c0,0-8.71,3.22-12.88-0.44c-4.17-3.66-8.76-21.44-8.36-24.44
				c0.41-3,3.05-6.81,3.05-6.81l-21.83-77.45l-4.03-1.56l-11.5,4.47c0,0-11.72,27.19-17.89,32.58c-6.17,5.39-10.33,6.04-14.94,3.57
				c-4.61-2.47-10.39-5.53-7.67-18.97c2.72-13.44,16.96-63.57,18.19-65.06c1.23-1.49,7.13-1.32,11.9-0.78
				c4.77,0.54,13.96,3.68,13.96,3.68s-17.96-63.89-18.68-73.43c-0.72-9.54,0.9-25.19,6.29-34.26c5.39-9.07,12.78-21.76,12.78-21.76
				s-4.52,3.95-10.72-0.56c-6.2-4.51-7.32-11.31-7.87-18.19c-0.54-6.88-2.06-30.02-2.06-30.02s-18.69-0.1-22.22-2.12
				c-3.53-2.03-8.27-10.33-7.47-12.17c0.79-1.84,4.52-1.23,4.52-1.23s-1.04-3.49,0.69-3.57c1.73-0.08,4.64-0.95,5.7,1.01
				c1.06,1.95,3.05,4.46,3.05,4.46s24.87-5.36,27.82,0c2.96,5.36,7.37,19.75,7.37,19.75s8.35-30.45,13.47-35.04
				c5.12-4.6,14.05-10.35,16.12-11.05c2.07-0.7,7.99-3.93,8.26-5.8c0.27-1.87,2.46-15.4,2.46-15.4s-2.33-6.63-5.01-7.81
				c-2.69-1.19-7.93-2.51-10.13-7.59c-2.2-5.08-4.42-13.39-4.42-13.39s-12.98,0.21-13.57-13.17c-0.59-13.37,10.61-21.94,16.32-22.32
				c5.71-0.37,9.87,1.6,11.21,3.57c1.34,1.98,3.15,4.47,3.15,4.47s12.43-6.76,20.35-3.02c7.93,3.75,13.98,8.83,14.06,12.72
				c0.12,5.45-5.31,13.39-5.31,13.39s-1.82,5.59,0.88,7.25c2.7,1.67,4.3,1.1,4.13,2.45c-0.17,1.35-2.36,4.58-2.36,4.58
				s-1.29,10.96-7.67,12.94C294.79,99.94,292.62,99.07,292.62,99.07z"/>
		</g>
	</g>
	<g>
		<g>
			<path class="st7" d="M261.85,386.07c0,0-0.56,12.56,3.93,16.18c4.49,3.61,21.07,6.88,23.5,4.35c2.43-2.53,7.8-19.13,8.55-31.69
				c0.75-12.57-0.16-23.37-2.56-24.33c-2.39-0.96-20.22-5.96-23.01-5.47c-2.79,0.49-3.74,2.68-3.74,2.68s3.77,0.4,4.23,9.59
				c0.46,9.19-3.25,30.8-3.25,30.8L261.85,386.07z"/>
		</g>
		<g>
			<path class="st7" d="M273.75,465.18c0,0,2.97,3.63,10.52,1.67c7.55-1.95,20.18-8.31,25.37-12.5c5.19-4.18,6.61-5.86,6.39-7.25
				c-0.22-1.4,0.3-2.9,0.3-2.9s2.68-0.17,6.49,7.25c3.81,7.42,6.02,19.8,4.03,22.54c-1.99,2.73-15.51,14-28.31,18.3
				c-12.8,4.3-16.5,4.18-19.07,1.12c-2.58-3.07-8.04-16.13-8.16-20.98C271.17,467.58,273.75,465.18,273.75,465.18z"/>
		</g>
	</g>
	<g>
		<g>
			<path class="st6" d="M238.16,341.84l30.68,7.34c0,0-0.3-4.12,4.4-3.95c4.7,0.16,11.74,2.36,14.48,2.41
				c2.73,0.05,8.08,0.17,7.96,3.01c-0.12,2.85,3.17,18.47,0.88,31.47c-2.28,13-4.92,20.76-4.92,20.76s25.45,6.34,32.15,5.69
				c11.04-1.08,26.43-17.7,18.25-43.43c-8.18-25.73-34.76-107.56-36.75-121.12c-1.98-13.56-6.97-36.54-6.97-36.54l2.36-5.13
				c0,0-10.31-10.88-23.3-11.72c-13-0.84-20.94,0.34-20.94,0.34s-16.5,24.49-26.05,38.39c-9.55,13.89-11.98,26.84-7.67,49.88
				C227.03,302.28,238.16,341.84,238.16,341.84z"/>
		</g>
		<g>
			<path class="st6" d="M251.63,384.35c0,0,22.02,80.07,22.81,81.13c0.79,1.06,9.31,2.18,22.29-4.69
				c12.98-6.87,18.08-12.82,18.08-12.82l-10.87-40.85l-12.98-4.91c0,0,0.59,3.96-8.36,4.91c-8.95,0.95-19.17-3.85-21.33-7.7
				c-2.16-3.85-1.77-12.95-1.77-12.95L251.63,384.35z"/>
		</g>
	</g>
	<g>
		<g>
			<path class="st6" d="M236.16,342.52c0,0,3.14,6.76-1.08,13.06c-4.23,6.3-6.49,8.04-6.49,8.04l-7.37,34.14
				c0,0,1.57,9.1,1.08,13.84c-0.49,4.74-1.48,6.36-1.48,6.36l16.03-28.01l10.82-6.69l6.19-0.11c0,0,6.68-14.22,4.82-22.65
				c-1.87-8.43-5.01-15.4-5.01-15.4L236.16,342.52z"/>
		</g>
		<g>
			<path class="st6" d="M306.66,525.31c0,0,3.04,6.98,3.74,9.93c0.69,2.96,2.16,8.26,2.16,8.26s8.55-4.07,13.96-0.67
				c5.41,3.4,11.99,9.15,11.99,9.15l24.38-33.36c0,0-2.27-8.2-7.96-12.39c-5.7-4.18-10.62-4.91-10.62-4.91l-1.28,1.79l-6.79,4.24
				l-4.98-4.08c0,0,1.71,12.33-9.99,18.74C309.58,528.42,306.66,525.31,306.66,525.31z"/>
		</g>
	</g>
	<g>
		<g>
			<path class="st6" d="M210.31,351.82c0,0,2.75-14.79,5.31-14.73c2.56,0.05,10.22,0.84,7.57,13.84
				c-1.73,8.45-7.43,27.03-9.81,42.72c-1.28,8.43,0.37,18.33-0.32,20.22c-1.96,5.41-4.33,8.43-11.4,4.91
				c-7.08-3.52-7.67-7.42-3.44-23.99C202.45,378.21,210.31,351.82,210.31,351.82z"/>
		</g>
	</g>
	<g>
		<g>
			<path class="st0" d="M354.43,167.09l11.8-28.91c0,0,6.7-4.93,10.81-0.89c4.12,4.04,6.1,7.25,6.1,7.25s-9.05,52.58-14.06,57.47
				c-5.01,4.89-11.75,7.92-20.65,1.11c-8.9-6.8-24.29-29.23-24.29-29.23s-1.84,6.69-6.59,10.15c-4.74,3.46-9.44,5.24-9.44,5.24
				l-6,10.83c0,0-14.02-8.29-24.19-9.04c-10.17-0.74-21.04,1.67-21.04,1.67l-14.94,21.31c0,0-6.79,4.05-12.39,0.56
				c-5.6-3.49-5.68-11.68-6.88-17.63c-1.2-5.95-1.18-26.89-1.18-26.89s3.67-4.44,7.57-6.03c3.9-1.59,7.77-0.89,7.77-0.89l2.06,7.82
				c0,0,7.75-21.3,9.14-24.78c1.39-3.47,5.48-14.31,15.24-18.41c9.76-4.1,12.49-5.37,13.76-8.26c1.28-2.89,2.36-9.37,2.36-9.37
				s2.43-1.76,5.8-1.34c3.37,0.42,5.6,0.67,5.6,0.67s-2.36,9.23,1.28,8.37c3.63-0.87,19.05-8.77,28.12,2.24
				C329.28,131.12,354.43,167.09,354.43,167.09z"/>
		</g>
	</g>
	<g>
		<g>
			<path class="st7" d="M361.61,149.54c0,0,3.11-3.12,8.94-0.67c9.64,4.05,9.24,14.73,9.24,14.73l4.13-18.74c0,0-1.96-5.71-6.78-7.7
				c-4.82-1.99-10.12-1.56-10.12-1.56L361.61,149.54z"/>
		</g>
		<g>
			<path class="st7" d="M220.96,169.95c0,0-0.6-4.13,5.11-5.69c5.71-1.56,9.93-2.23,9.93-2.23l3.05,10.82c0,0-5.32-2.88-11.89,2.12
				c-6.33,4.81-5.41,11.05-5.41,11.05L220.96,169.95z"/>
		</g>
	</g>
	<g>
		<g>
			<path class="st6" d="M316.76,163.51c0,0-10.04,8.01-13.77,9.15c-3.72,1.15-15.98-8.45-31.36-5.24
				c-15.38,3.2-13.57,4.46-13.57,4.46l-1.47,19.64c0,0,16.07-2.38,25.17,1.45c9.1,3.83,20.35,8.48,20.35,8.48l4.62-10.83
				c0,0,8.49-1.97,11.9-6.92c3.4-4.95,5.21-9.6,5.21-9.6L316.76,163.51z"/>
		</g>
	</g>
	<g>
		<g>
			<path class="st7" d="M288.93,224.86c0.02,1.84-2.39,23.85-4.33,25.54c-1.94,1.7-16.13,9.48-18.09,9.5
				c-3.17,0.03-12.57-9.63-12.39-12.18c0.18-2.6,4.99-25.62,6.59-26.81c1.59-1.2,5.36-2.25,12.78-1.75
				C283.72,219.85,288.9,222.8,288.93,224.86z"/>
		</g>
		<g>
			<path class="st7" d="M245.76,218.83c-1.44-1.41-9.24,2.12-9.24,2.12s-4.71,6.04-8.06,12.5c-3.48,6.7-5.6,13.84-5.6,13.84
				s2.19,7.72,4.13,7.7c1.94-0.02,8.36-5.52,9.64-8.59C237.9,243.32,247.74,220.76,245.76,218.83z"/>
		</g>
	</g>
	<g>
		<g>
			<path class="st6" d="M277.52,46.2c5.84-3.34,15.11-4.6,22.12-1.67c3.27,1.36,5.79,3.37,8.36,5.69c2.33,2.11,5.17,5.26,5.11,9.37
				c-0.04,2.61-1.18,4.93-2.16,6.81c-1.04,1.99-2.07,3.92-3.54,5.24c0.52,1.9-0.04,3.16,0.39,4.69c0.71,2.49,4.98,1.66,5.01,4.24
				c0.04,2.76-3.15,1.2-4.52,0.45c-1.51-0.83-2.78-1.89-3.24-3.35c-0.36-1.12-0.22-2.31-0.3-3.57c-0.21-3.56-1.12-6.29-2.65-8.48
				c-0.71,0.28-1.52,1.4-2.06,2.24c2.13-0.59,3.62,2.71,1.57,3.46c-1.46,0.53-2.73-0.78-3.74-0.67c-1.14,0.13-3.01,3.19-3.83,4.13
				c-1.33,1.51-2.77,2.83-3.74,4.24c-0.32,0.46-0.57,1.94-1.47,2.12c-1.1,0.22-1.94-0.69-3.05-1c-1.21-0.34-2.79-0.27-3.24,1
				c-0.41,1.13,0.38,4.12,0.88,5.13c0.82,1.66,3.18,2.26,3.44,3.91c0.15,0.96-0.18,2.38-0.29,3.46c-0.26,2.45-0.41,4.15-0.69,6.8
				c-0.1,0.95-0.24,2.39-0.69,2.9c-0.86,0.99-2.22,0.52-4.03,1.12c-0.44,0.69-0.4,1.92-0.59,2.9c2.37-0.68,6.41-0.95,9.14-0.11
				c0.6-2.44,0.8-5.34,1.28-7.92c-1.05-1.15-3.6-0.98-3.44-3.23c0.18-2.65,2.84-0.81,4.03-0.23c2.89,1.42,7.33,2.33,10.52,0
				c1.66-1.21,2.81-3.23,3.74-5.13c0.49-1.01,0.84-2,1.08-3.46c0.25-1.47-0.01-4.26,1.77-4.24c2.36,0.02,1.12,5.12,0.59,6.92
				c-0.68,2.33-2.06,4.54-3.14,6.03c-2.49,3.42-6.49,5.7-12.29,4.24c-0.55,5.04-2.2,10.33-1.38,15.84c3.51-1.03,6.94-2.29,11.01-2.9
				c4.33-0.65,7.98-0.26,11.5,1.56c6.14,3.18,10.57,9.13,14.55,14.62c8.24,11.35,16.62,23.07,24.58,34.37
				c3.95-9.84,8.31-20.43,12.39-30.68c0.59-1.48,1.47-3.19,1.67-4.46c0.25-1.52-0.03-3.55-0.1-5.47c-0.19-5.48-0.2-11.32-0.2-16.96
				c0-3.69-0.05-7.63,0.1-11.38c0.15-3.77-0.01-7.96,1.08-10.49c1.07-2.47,4.2-4.01,7.67-4.91c4.38-1.13,9.4-0.83,9.34,5.03
				c-0.04,4.73-4.35,4.25-8.16,5.47c-0.38,1.17-0.49,2.64-0.69,4.02c2.53-0.65,4.96-1.81,7.77-1.11c2.44,0.6,3.99,2.28,5.7,4.01
				c1.64,1.66,2.99,3.34,4.42,5.47c1.24,1.83,2.96,4.36,3.05,7.03c0.08,2.36-0.94,4.86-1.87,6.7c-0.97,1.92-2.02,3.64-3.74,4.46
				c0.26,3.65,0.46,7.31-0.59,9.82c-1.08,2.57-2.86,4.14-4.42,5.91c-4.24,18.84-8.19,38.54-13.17,57.02
				c-0.72,2.68-1.27,5.51-2.26,7.59c-1.19,2.5-3.46,4.39-5.6,5.69c-2.44,1.48-5.23,2.4-8.45,2.45c-3.45,0.06-6.29-1-8.65-2.23
				c-2.43-1.26-4.05-3.36-5.8-5.36c-7.13-8.09-13.24-16.87-19.96-25.33c-2.97,7.31-7.1,13.29-14.94,15.06
				c-2.64,5.29-5.23,10.65-7.87,15.95c1.61,11.01,3.22,21.66,5.21,31.91c1.98,10.16,4.67,19.8,7.57,29.12
				c8.76,28.19,17.48,55.15,25.95,83.8c1.44,4.85,2.77,9.48,4.03,14.28c0.66,2.52,1.42,4.9,1.67,7.59c0.26,2.78,0.37,5.73,0.3,9.04
				c-0.23,11.11-5.67,19.53-11.99,24.1c-3.39,2.45-7.7,4.52-12.68,4.24c-4.9-0.28-9.57-1.21-14.55-2.35
				c2.86,11.26,6.25,22.88,9.34,34.25c5.81,1.15,8.14,8.21,10.12,14.06c1.48,4.38,2.96,9.55,2.65,14.62
				c-0.18,2.94-1.96,4.47-3.15,6.47c1.73,5.95,3.48,12.61,5.21,18.97c0.96,3.54,1.45,7.29,4.23,8.7c1.6-1.1,3.08-2.11,4.72-3.23
				c0.49-0.34,1.21-0.62,1.57-1c0.73-0.78,1.19-2.18,1.77-3.13c3.12-5.11,6.77-8.8,12.78-10.82c8.42-2.83,14.07,3.12,16.61,9.82
				c1.85,4.86,1.55,11.53,0.1,17.18c-1.33,5.2-3.43,9.46-6.19,13.28c-2.65,3.68-5.77,6.88-8.55,10.49
				c-4.12,5.34-7.99,11.15-12.09,16.62c-1.39,1.85-2.72,4.22-4.23,5.58c-1.67,1.5-4.07,2.59-6.29,3.57
				c-4.97,2.19-11.2,2.1-15.14-1.12c-1.76-1.43-3.62-3.27-4.72-5.36c-1.16-2.21-1.87-5.29-2.75-7.92c-0.9-2.7-1.74-5.52-2.46-8.15
				c-4.57-16.75-12.13-30.28-17.99-45.52c-0.08-0.02-0.1-0.11-0.2-0.11c-4.68,0.95-11.57,2.52-14.15-1.34
				c-0.46-0.69-0.81-1.71-1.28-2.56c-1.29-2.34-2.49-5.11-3.44-7.92c-1.38-4.08-1.83-8.46-2.66-12.83c-0.11-0.58-0.43-1.2-0.49-1.79
				c-0.37-3.35,1.89-5.42,3.05-7.36c-7.22-25.35-14.45-50.7-21.53-76.21c-1.37-0.06-2.52-0.9-3.73-0.79
				c-0.68,0.07-1.66,0.73-2.46,1.12c-2.29,1.12-4.84,2.5-7.17,3.46c-3.66,7.96-7.87,15.79-11.99,23.43
				c-1.43,2.64-2.68,5.19-4.32,7.36c-3.14,4.14-9.16,7.7-15.63,6.03c-2.85-0.73-5.14-2.26-7.18-4.13c-1.91-1.76-4.52-4.81-4.72-8.26
				c-0.18-3.14,1.06-7.51,1.67-10.37c3.55-16.72,7.49-31.62,11.99-47.53c1.22-4.32,2.64-9.21,4.13-13.72
				c0.66-2.02,1.03-4.12,2.36-5.02c1.54-1.04,4.05-0.49,6.1-0.11c6.25,1.17,12.55,2.4,18.19,3.68
				c-5.29-20.52-12.04-41.71-16.71-63.6c-1.24-5.82-1.9-12.3-1.57-18.75c0.99-19.33,10.12-29.98,17.7-41.95
				c-5.33,0.87-9.09-0.81-11.6-4.24c-2.26-3.09-4.22-7.56-4.92-12.16c-1.52-10.1-1.25-22.54-1.87-33.47
				c-3.39-0.17-7.03-0.28-10.72-0.56c-3.38-0.26-7.05-0.15-10.03-1.23c-2.74-0.99-4.46-3.2-6.19-5.58
				c-0.74-1.02-1.75-2.22-2.56-3.46c-0.74-1.13-1.79-2.76-1.67-4.35c0.18-2.47,2.39-3.58,4.82-3.8c-0.13-3.05,3.39-3.36,6-2.68
				c2.54,0.66,3.99,3.11,4.92,4.8c7.66-1.07,16.64-3.81,24.67-1.78c7.46,1.88,8.79,10.64,10.81,18.86
				c1.97-5.27,3.86-10.57,5.6-15.95c0.9-2.81,1.49-5.78,2.46-8.37c2.85-7.62,8.47-12.65,15.04-16.4c3.12-1.78,6.51-3.52,9.93-5.47
				c1.07-0.61,2.58-1.43,2.95-2.12c0.48-0.9,0.56-2.38,0.79-3.57c0.48-2.48,0.88-4.98,1.28-7.48c0.18-1.12,0.66-2.72,0.59-3.68
				c-0.08-1.14-1.71-4.18-2.36-5.02c-0.99-1.28-3.26-1.77-4.82-2.45c-2.71-1.19-5.04-3.69-6.78-6.25
				c-2.43-3.57-3.41-7.66-4.62-13.28c-10.41-0.91-15.03-8.92-13.76-20.87c0.56-5.24,2.75-8.87,5.8-11.94
				c2.86-2.88,6.62-6.04,10.91-6.47C269.85,37.09,274.67,41.14,277.52,46.2z M279.68,53.56c-0.23,3.07-2.34,3.35-3.64,5.58
				c-0.78,1.35-1.22,5.93-2.85,6.14c-2.65,0.33-1.31-3.34-0.89-4.69c0.74-2.35,1.5-3.63,2.85-5.02c0.58-0.59,1.46-1.34,1.57-2.34
				c0.16-1.41-0.84-3.33-1.47-4.58c-2.17-4.27-5.19-7.1-10.13-7.48c-5.63-0.43-9.05,2.95-11.99,6.03
				c-2.73,2.84-4.36,5.68-4.62,10.94c-0.28,5.61,0.71,9.12,2.95,11.72c2.02,2.34,5.08,4.13,9.93,3.9c1.46-0.07,2.87-0.15,2.85,1.56
				c-0.01,1.22-0.84,1.31-1.77,1.9c1.51,6.85,3.64,12.99,8.85,16.07c1.88,1.11,4.14,1.11,5.7,2.56c0.58,0.54,1.17,1.5,1.77,2.57
				c0.39,0.7,1.12,2.63,1.57,2.79c0.69,0.25,1.7-0.56,2.46-0.44c0.42-3.09,0.66-6.4,1.08-9.48c-0.98-0.85-2.1-1.76-2.85-3.13
				c-1.08-1.97-2.07-5.63-1.28-8.14c0.94-2.97,4.66-4.26,7.87-2.79c4.83-5.16,10.99-12.81,16.22-18.75c0.7-0.8,1.65-2.35,2.65-2.34
				c0.7,0,1.34,0.73,1.37,1.56c0.06,1.32-1.02,2.06-1.77,2.9c-0.8,0.9-1.49,1.67-2.06,2.56c0.89,1.45,1.93,2.72,2.46,4.58
				c1.26-2.19,3.85-5.04,3.64-8.59c-0.09-1.46-1.09-3.26-2.07-4.46c-1.75-2.18-4.38-4.23-7.17-5.91c-6.48-3.9-16.01-3.17-22.12,0.56
				C279.12,50.18,279.81,51.85,279.68,53.56z M379.17,82.13c-2.57,0.26-6.73,1.63-7.57,3.57c-0.47,1.08-0.39,3.11-0.49,5.02
				c-0.6,10.77-0.28,22.31-0.1,32.91c0.03,1.96,0.33,4,0.1,5.58c-0.28,1.94-1.75,3.63-2.06,5.36c5.85-1.12,10.97,2.16,13.47,5.47
				c0.33,0.44,0.61,1.17,0.89,1c0.89-2.06,0.54-4.51,1.47-6.58c0.42-0.92,1.67-1.89,2.46-2.79c1.19-1.35,2.31-2.64,2.46-5.02
				c0.18-2.82-0.06-6.36-0.69-9.15c-1.24,0.07-2.03-0.34-2.06-1.56c-0.04-1.41,1.81-2.53,2.65-3.8c0.51-0.77,0.35-1.11,0.98-1.45
				c1.24-0.66,2.43,0.14,2.46,1.34c0.02,0.97-2.28,3.87-1.08,4.58c0.42,0.24,1.4-1.93,1.77-2.68c0.58-1.19,1.06-2.2,1.28-3.46
				c0.46-2.66-1.1-3.96-1.97-5.57c-0.24,0.68-0.63,0.81-1.18,1.11c-2.04,1.13-5.3,2.54-7.67,3.68c-1.32,0.64-4.12,1.98-3.93-0.78
				c0.09-1.26,1.44-1.57,2.36-2.01c3.12-1.5,5.85-3.01,8.85-4.24c-0.62-0.68-1-2.09-1.87-2.23c-0.28-0.04-1.23,0.37-1.77,0.56
				c-2.93,1-5.7,2.27-8.16,3.68c-1.25,0.72-4.51,2.84-4.43-0.22c0.03-1.2,1.53-1.87,2.36-2.34c3.17-1.81,6.11-3.15,9.54-4.24
				c-1.98-3.32-6.84-1.65-9.73-0.45c-1.52,0.63-3.48,2.11-4.52,2.01c-0.75-0.07-1.29-0.89-1.28-1.67c0.02-1.46,1.27-1.65,2.26-2.23
				c0.72-2.21,0.37-6.6,1.48-8.14c0.64-0.89,2.7-1.01,3.93-1.34c1.24-0.33,2.51-0.41,3.64-1C383.74,82.1,381.33,81.91,379.17,82.13z
				 M279.88,111.48c-0.96,3.42-0.61,6.46-1.87,9.04c-0.92,1.88-3.72,3.18-5.5,4.13c-7.94,4.2-15.83,7.9-20.45,15.73
				c-1.84,3.12-2.66,7.03-3.93,11.16c-2.26,7.36-5.2,14.94-7.77,22.31c-2.11,6.06-3.78,10.9-5.8,16.85
				c-0.73,2.15-1.14,4.82-2.85,4.57c-2.11-0.3-0.62-3.45,0-5.24c1.48-4.29,2.52-7.27,3.93-11.38c0.52-1.53,1.81-4.27,1.87-5.8
				c0.05-1.29-0.79-5.59-1.18-6.47c-1.16-2.64-6.66-1.23-8.36-0.45c-1.93,0.89-4.96,2.88-5.41,5.58c-0.24,1.44,0.03,3.55,0.1,5.47
				c0.06,1.93,0.22,3.93,0.3,5.58c0.31,7.36,0.27,15.51,2.16,20.98c1.19,3.44,2.85,7.41,5.31,9.04c2.62,1.72,8.14,1.41,10.32-0.33
				c0.66-0.53,1.28-1.7,1.87-2.57c3.8-5.61,7.12-10.71,11.01-16.18c0.6-0.84,1.65-1.84,1.87-2.68c0.35-1.35,0.15-3.23,0.3-4.91
				c0.87-10.16,1.49-19.1,2.36-29.34c0.15-1.84,0.34-3.4,1.87-3.24c2.11,0.23,0.86,6.29,0.69,8.6c-0.74,9.8-1.61,19.85-2.36,29.01
				c7.82-0.91,16.63-2.2,24.18-0.44c7.1,1.65,13.28,5.35,18.97,8.25c0.97-1.72,1.69-3.49,2.65-5.46c0.59-1.21,1.95-4.53,2.95-5.13
				c0.98-0.59,2.32-0.72,3.34-1.12c3.68-1.44,5.82-4.08,7.87-7.14c1.25-1.88,2.37-3.98,3.05-6.69c-2.26-3.6-5.34-7.28-8.06-10.94
				c-0.64-0.86-2.49-2.71-2.16-4.24c0.12-0.58,0.83-1.09,1.28-1.11c0.97-0.06,1.91,1.45,2.66,2.45c9.84,13.31,19.1,25.43,29.2,37.93
				c1.6,1.98,3.12,4.04,4.92,5.36c2.9,2.14,7.04,3.52,11.5,2.67c3.47-0.66,7.27-2.98,8.85-6.25c0.77-1.58,1.31-3.92,1.87-6.03
				c2.71-10.19,5.38-21.85,7.67-32.24c0.96-4.38,2.33-8.64,2.85-13.17c0.45-3.94-2.23-6.5-4.52-8.03c-2.18-1.46-5.25-2.42-7.87-1.67
				c-3.01,0.86-3.64,4.59-4.91,7.7c-2.91,7.1-5.61,13.92-8.36,20.98c0.36,0.73,1.17,1.95,2.06,3.23c0.75,1.08,2.18,2.17,1.97,3.68
				c-0.1,0.69-0.78,1.21-1.37,1.23c-1.15,0.04-2.29-2.1-3.24-3.46c-10.64-15.14-20.54-29.4-31.56-43.96
				c-2.01-2.66-3.91-4.85-6.59-7.03c-2.49-2.03-5.58-3.96-9.04-4.24c-4.69-0.38-9.26,1.32-12.68,2.57
				c-1.28,0.46-3.05,1.11-4.13,0.78c-2.49-0.76-2.68-5.24-2.26-8.81C286.45,109.67,281.99,109.81,279.88,111.48z M198.48,152.76
				c0.64,1.16,1.38,2.96,2.46,3.46c1.26,0.59,3.43,0.67,5.21,0.89c1.8,0.22,4.37,0.03,4.52,1.78c0.24,2.69-3.29,1.72-5.21,1.45
				c-1.99-0.27-4.8-0.48-6.19-1.34c-2.52-1.55-2.96-4.56-4.52-6.92c-1.01-0.63-2.72-1.2-3.54,0c1.01,2.14,2.22,3.71,3.44,5.36
				c0.97,1.31,2.51,3.45,4.42,4.35c2.36,1.11,6.04,0.98,9.54,1.23c3.38,0.24,6.65,0.42,9.73,0.56c2.52,0.11,4.04-0.25,4.03,2.34
				c2.8-2.47,7.38-5.32,12.78-4.13c-1.24-3.55-2.04-6.85-4.23-8.93c-1.73-1.64-5.03-1.89-8.06-1.89c-6.05,0-11.59,1.07-16.71,2.12
				c-1.21,0.25-2.52,0.7-3.24,0.56c-1.58-0.32-1.83-3.18-2.95-4.24c-1.03-0.98-1.7-0.93-3.54-1c-0.06,0-0.12,0.02-0.1,0.11
				C196.97,149.89,197.6,151.17,198.48,152.76z M280.47,193.37c-8.13-1.44-16.18,0.41-23.69,1.11c-6.7,9.62-13.33,19.1-19.86,29.23
				c-6.37,9.89-13.56,19.51-13.96,35.93c-0.21,8.32,1.07,15.57,2.75,22.54c4.95,20.49,10.61,39.9,16.02,59.58
				c8.22,1.83,16.51,3.58,24.77,5.36c1.06-1.34,1.73-2.74,3.34-3.46c1.47-0.66,2.96-0.01,4.82,0.11c3.63,0.24,7.88,0.8,10.62,1.56
				c-10.38-21.95-20.88-43.78-31.36-65.61c-1.05-1.19-6.07-1.67-5.9-4.24c0.18-2.76,3.15-0.76,4.42-0.11
				c1.27,0.64,2.45,1.02,3.34,1.67c0.73,0.53,1.77,3.11,2.36,4.35c10.09,21.41,21.23,44.53,31.06,64.94
				c2.23,0.92,4.78,0.9,6.49,2.23c1.57,1.22,2.02,3.24,2.75,5.47c1.5,0.39,3.27,0.37,3.15,2.23c-0.09,1.33-1.3,1.46-2.46,1.56
				c1.64,16.63-1.41,32.86-5.5,44.41c7.32,1.7,13.96,3.75,21.53,4.91c2.6,0.4,5.32,0.85,7.96,0.56c4.87-0.54,8.69-3.23,11.7-6.25
				c3.17-3.17,5.44-7.03,6.78-11.94c1.38-5.03,1.56-11.95,0.39-17.52c-1.1-5.26-2.68-10.48-4.03-15.06
				c-8.79-29.71-17.61-57.4-26.84-87.15c-2.94-9.49-5.81-19.13-7.96-30.12c-1.78-9.11-3.39-19.28-4.82-28.9
				c-0.23-1.56-0.62-3.38-0.49-4.35c0.24-1.79,1.86-3.18,2.16-4.8C294.33,198.77,287.7,194.65,280.47,193.37z M225.52,341.77
				c-2.96-0.59-6.8-1.6-9.73-1.45c-2.33,5.47-3.77,11.52-5.5,17.52c-1.71,5.94-3.3,12.04-4.92,18.19c-2.74,10.4-5.7,21.54-7.77,32.8
				c-0.3,1.62-0.83,3.78-0.69,5.25c0.2,2.04,2.12,4.55,3.64,5.91c3.41,3.08,8.47,4.87,13.47,2.57c1.92-0.88,4.42-2.31,5.21-4.24
				c0.4-0.96,0.5-2.25,0.69-3.34c0.62-3.57,0.42-7.09,0-10.83c-0.24-2.17-0.88-4.9-0.79-6.92c0.06-1.25,0.65-2.77,0.98-4.24
				c2.02-8.78,4.03-17.09,6.1-25.77c0.35-1.46,0.55-3.23,1.08-4.24c0.57-1.1,2.41-2.01,3.34-2.79c1.09-0.92,2.31-1.87,3.05-3.13
				c1.96-3.33,3-9.91,0.69-13.39C231.67,343,228.62,342.39,225.52,341.77z M234.95,360.52c-1.59,1.89-3.61,2.98-5.11,4.47
				c-2.36,9.36-4.53,18.82-6.78,28.45c-0.33,1.42-0.96,2.95-0.98,4.13c-0.02,0.97,0.26,2.19,0.39,3.24
				c0.43,3.42,0.89,6.66,0.88,10.37c3.71-5.98,7.52-14.02,10.91-20.98c0.52-1.07,1.02-2.5,1.57-3.01c0.57-0.52,1.8-0.88,2.75-1.34
				c2.13-1.04,3.64-1.83,5.6-2.79c0.93-0.46,1.99-1.15,2.95-1.23c1.43-0.11,2.62,0.99,4.13,0.67c0.77-0.16,1.93-1.78,2.56-2.9
				c3.35-5.96,3.64-17.23,1.57-24.88c-0.76-2.8-2.19-6.8-4.13-7.47c-2.11-0.74-4.39-0.95-6.59-1.45c-2.13-0.48-4.32-1-6.68-1.34
				c-0.01-0.07-0.02-0.13-0.1-0.11C239.85,349.73,237.6,357.36,234.95,360.52z M270.83,348.24c2.48,2.26,2.75,8.94,2.75,14.06
				c0,9.89-1.38,19.01-3.34,26.55c-0.95,3.65-2.41,8.24-4.52,10.05c-0.46,0.39-1.07,0.8-1.77,0.78c0.17,1.21,1.02,1.56,1.87,2.01
				c0.78,0.42,1.55,1.05,2.36,1.45c3.44,1.7,7.55,2.42,11.9,3.01c1.94,0.26,5.25,0.78,7.08,0.11c1.3-0.47,2.59-3.02,3.34-4.69
				c2.61-5.76,4.16-12.85,5.11-19.86c1.28-9.44,2.19-23.02-1.38-30.12c-6.83-2.69-14.67-4.25-23.5-4.69
				C269.8,347.7,269.92,347.4,270.83,348.24z M255.99,381.94c-0.26,0.42-0.95,0.78-0.79,1.45c4.24,0.84,8.44,1.72,12.68,2.57
				c1.12-4.98,2.02-10.94,2.46-17.07c0.43-6.12,0.63-13.04-1.18-17.86c-4.39-0.79-8.51-1.88-12.88-2.68
				C260.78,356.83,260.75,374.32,255.99,381.94z M254.52,386.96c6.64,24.47,14.04,49.12,20.74,73.3c0.45,1.64,0.7,3.33,1.47,4.8
				c4.18,0.26,7.86-0.95,11.21-2.12c8.22-2.87,16.34-6.82,22.41-12.27c0.93-0.83,3.14-2.68,3.25-3.91c0.04-0.43-0.36-1.6-0.59-2.45
				c-3.34-12.34-6.87-24.29-10.03-36.37c-3.71-0.78-7.15-1.85-10.81-2.68c-1.41,1.93-2.72,4.2-5.6,4.57
				c-4.31,0.57-8.8-0.35-13.17-1.45c-3.11-0.78-5.94-1.58-8.26-3.12c-0.82-0.55-1.76-0.97-2.36-1.57
				c-3.1-3.11-3.17-10.26-3.64-16.18c-1.6-0.23-3.04-0.63-4.62-0.89C254.39,386.63,254.39,386.93,254.52,386.96z M263.76,396.22
				c1.78-1.55,2.39-4.43,3.24-7.03c-1.48-0.41-3.13-0.62-4.62-1C262.49,391.26,262.76,394.16,263.76,396.22z M316.16,446.99
				c0.04,0.51-0.06,1.09-0.2,1.56c-0.93,3.08-4.8,5.73-7.47,7.59c-3.06,2.13-6.11,3.94-9.34,5.58c-5.14,2.61-10.05,4.78-15.92,6.13
				c-2.93,0.68-7.18,1.21-9.14-0.33c-0.29-0.22-0.6-0.95-0.98-0.56c-0.81,0.98-0.2,2.17,0,3.35c0.23,1.3,0.28,2.7,0.49,4.01
				c0.84,5.23,2.14,9.3,4.03,13.5c0.64,1.41,2.13,4.8,3.25,5.47c1.6,0.96,5.14,0.32,7.18,0c7.21-1.14,12.85-3.49,18.48-6.25
				c5.35-2.63,10.88-5.79,15.24-9.93c1.21-1.15,3.41-3.41,3.64-5.02c0.12-0.85,0-2.95-0.1-4.13c-0.34-3.97-1.8-8.3-3.24-12.05
				c-0.64-1.68-1.42-3.63-2.26-5.25c-0.76-1.46-1.99-3.82-3.54-4.02C316.14,446.68,316.14,446.83,316.16,446.99z M305.14,519.74
				c1.17,2.81,1.64,4.53,5.01,4.58c4.65,0.06,8.66-2.45,11.89-4.91c3.42-2.6,6.3-5.67,7.77-9.71c0.25-0.68,0.64-1.95,0.59-2.68
				c-0.06-0.88-0.78-2.05-1.08-3.12c-2.21-7.98-4.28-15.72-6.39-23.43c-7.79,6.33-17.51,11.44-28.21,14.84
				C298.13,503.28,301.73,511.57,305.14,519.74z M315.76,550.65c0.58,1.75,0.98,3.65,1.77,5.25c0.88,1.77,3.35,4.21,4.82,5.13
				c3.03,1.91,7.53,1.77,11.3,0.11c2.03-0.89,4.34-1.91,5.7-3.13c1.13-1,2.31-3.02,3.54-4.69c3.62-4.91,6.84-9.38,10.42-14.28
				c2.28-3.13,4.89-6.25,7.27-9.15c2.55-3.11,5.17-6.23,6.78-9.82c1.87-4.16,3.68-10.38,3.24-16.74c-0.21-3.14-1.54-6.2-3.14-8.48
				c-1.87-2.66-4.86-5.43-9.24-4.58c-5.82,1.14-10.24,4.99-12.88,10.05c3.49,0.05,6.15,1.42,8.45,3.01c3.9,2.69,6.8,5.41,8.75,10.27
				c0.52,1.3,1.81,4.1,1.67,5.69c-0.12,1.4-2.13,3.37-3.05,4.57c-6.77,8.9-13.01,17.21-19.76,26.11c-0.92,1.2-2.47,3.91-3.73,3.91
				c-1.24-0.01-2.43-2.32-3.24-3.24c-1.08-1.23-2.31-2.29-3.34-3.13c-2.16-1.76-5.17-3.88-8.85-3.91c-2.62-0.01-5.31,0.97-8.16,1.67
				C314.62,547.25,315.21,548.98,315.76,550.65z M337.39,507.8c0.72,1.35,2.87,1.42,2.85,3.35c-0.01,0.93-0.74,1.53-1.38,1.56
				c-1.08,0.05-2.11-1.14-3.05-1.9c-0.48-0.39-0.95-0.78-1.37-1.12c-0.48-0.38-0.84-1.02-1.28-0.89c-1.31,5.47-4.73,9.48-8.65,12.72
				c-3.93,3.24-9.9,6.71-16.12,5.91c1.9,4.57,3.28,9.74,4.82,14.73c3.2-0.87,6.49-2.11,10.22-1.78c6.54,0.57,10.73,5.62,14.35,9.38
				c7.69-10.5,15.73-20.6,23.4-31.13c-1.57-6.17-4.85-9.97-9.34-12.83c-2.31-1.47-5.08-2.27-8.36-2.34
				C341.69,505.17,339.46,506.39,337.39,507.8z"/>
		</g>
		<g>
			<path class="st6" d="M297.48,83.47c1.79-0.4,1.53,1.87,3.14,2.9c1.09,0.69,3.56,0.36,3.44,2.45c-0.17,3.01-5.08,0.55-6-0.45
				C297.27,87.51,295.01,84.02,297.48,83.47z"/>
		</g>
	</g>
	<g>
		<g>
			<path class="st6" d="M277.22,47.56c0,0-7.69-10.73-15.93-7.37c-8.24,3.36-13.92,9.1-13.57,17.41c0.36,8.31,0.64,12.37,4.23,14.95
				c3.59,2.58,8.75,2.45,8.75,2.45s0.88,10.35,5.6,14.85c4.72,4.5,7.75,4.66,9.44,6.7c1.69,2.03,3.83,6.69,3.83,6.69l4.62-1.9
				l1.08-11.38c0,0-5.88-4.04-4.52-7.59c1.36-3.54,2.4-6.3,4.13-5.47c1.73,0.84,3.74,1.79,3.74,1.79l14.06-15.29
				c0,0,1.46,1.49,2.16,3.57c0.7,2.08,1.18,3.79,1.18,3.79s6.59-9.02,5.11-13.73c-1.48-4.7-12.03-14.4-19.66-13.83
				C283.85,43.77,277.22,47.56,277.22,47.56z"/>
		</g>
	</g>
	<g>
		<g>
			<path class="st6" d="M299.08,72.44c0.92,0,1.67,0.85,1.67,1.89v3.02c0,1.04-0.75,1.9-1.67,1.9c-0.92,0-1.67-0.85-1.67-1.9v-3.02
				C297.41,73.29,298.16,72.44,299.08,72.44z"/>
		</g>
	</g>
	<g>
		<g>
			<path class="st0" d="M278.2,44.77c2.63-0.58,2.77,4.26,2.77,7.41c0,8.55-1.29,15.79-5.24,20.32c-2.12,2.43-4.76,4.01-7.91,5.61
				c-0.91,0.46-2.91,1.59-4.75,1.91c-2.28,0.4-4.46,0.21-4.45-1.91c0.01-2.18,1.72-1.75,3.96-2.13c2.43-0.42,3.99-1.6,6.03-2.81
				c4.47-2.65,7.06-5.98,8.21-12.57c0.59-3.41,0.97-7.63,0.49-11.45C277.1,47.43,276.05,45.25,278.2,44.77z"/>
		</g>
	</g>
	<g>
		<g>
			<path class="st7" d="M568.26,96.29c0.83-0.13,2.28,0,3.35,0.56c3.11,1.62,6.12,6,6.31,10.74c0.3,7.34-4.61,11.73-11.63,11.19
				c-5.68-0.43-9.59-4.51-12.82-8.17c-3.42-3.89-6.69-7.31-12.03-9.07c-2.8-0.92-5.77-1.51-8.87-1.12c-3.2,0.4-5.41,1.36-7.69,2.57
				c-1.98,1.06-4.35,2.63-6.21,4.36c-1.6,1.5-3.55,3.41-4.34,6.38c-0.42,1.58-0.16,3.28-1.38,3.58c-2.63,0.65-2.45-2.89-1.97-4.7
				c0.36-1.33,0.86-2.25,1.28-3.02c2.6-4.74,6.51-7.8,11.34-10.41c4.63-2.5,10.73-3.68,17.16-2.01c5.87,1.52,9.86,4.48,13.21,8.28
				c1.67,1.9,3.46,4.14,5.23,5.71c1.8,1.6,4.37,3.32,7,3.58c5.57,0.56,9.92-3.52,7.59-9.62c-0.71-1.86-1.99-3.78-3.84-4.59
				c-0.49-0.21-1.66-0.65-1.77,0.22c-0.14,1.04,1,0.65,1.58,0.9c0.47,0.2,1.01,0.93,1.08,1.45c0.28,2.02-1.73,2.97-3.55,2.24
				c-1.53-0.61-3.13-2.82-2.56-5.71C565.07,97.85,566.43,96.57,568.26,96.29z"/>
		</g>
		<g>
			<path class="st7" d="M590.35,119.79c-0.72-2.23,1.61-4.74,3.84-4.81c8.42-0.28,8.14,14.03,0.2,14.1
				c-1.53,0.01-3.28-0.79-4.24-1.9C588.98,125.81,587.35,120.45,590.35,119.79z M592.81,124.49c1.12,1.12,2.89,0.39,3.55-0.45
				c1.19-1.51,0.6-5.55-1.97-5.04c-1.05,0.21-0.88,1.54-2.46,1.79C592.45,122.07,591.95,123.63,592.81,124.49z"/>
		</g>
		<g>
			<path class="st7" d="M566.19,179.55c6.03,8.83,9.51,21.24,13.11,33.01c3.64,11.88,7.3,24.42,9.37,37.49
				c3.3,20.85,1.9,46.78-6.7,60.54c-1.98,3.16-4.92,6.47-8.08,8.84c-0.47,0.35-1.14,0.62-1.68,1.12c-0.73,0.68-0.94,1.06-1.68,1.01
				c-0.91-0.06-1.48-0.79-1.58-1.57c-0.32-2.56,3.53-4.33,4.93-5.6c5.5-4.99,8.85-12.31,10.75-21.26
				c2.46-11.58,2.87-27.35,0.89-40.4c-1.89-12.45-5.28-23.93-8.48-34.91c-1.62-5.56-3.33-11.05-5.13-16.45
				c-1.76-5.3-3.27-10.81-6.11-15.33c-0.1,2.34-0.2,4.53-0.3,7.16c-0.09,2.35,0.13,5.25-1.87,5.26c-2.64,0.02-1.7-5.87-1.58-8.84
				c0.07-1.78,0.21-3.58,0.3-5.26c0.13-2.51-0.07-5.57,0.89-7.05c-0.25-4.46,3.58-1.78,5.62-1.01c2.74,1.04,5.42,1.84,8.38,3.02
				c1.41,0.56,3.06,1.04,3.06,2.69c0,2.77-2.84,1.65-4.44,1.01C572.71,181.76,569.15,180.67,566.19,179.55z"/>
		</g>
		<g>
			<path class="st7" d="M601.69,188.83c0.96-0.17,2.62,0.7,3.84,1.12c1.12,0.38,2.31,0.73,3.65,1.12c2.24,0.65,5.68,1.32,5.72,4.03
				c0.02,1.78-1.79,3.04-2.66,4.14c-1.97,2.49-3.73,4.8-5.92,7.61c-1.1,1.42-3.46,5-5.03,2.13c-0.36-0.66-0.43-2.47-0.59-3.92
				c-0.38-3.42-1.07-9.72-0.79-12.76C600.07,190.63,600.37,189.06,601.69,188.83z M604.05,203.38c0.72-0.24,1.07-1.15,1.58-1.79
				c1.6-1.99,3.34-3.96,4.73-6.04c-2.34-0.67-4.64-1.38-6.9-2.13C603.57,196.84,603.85,200.07,604.05,203.38z"/>
		</g>
		<g>
			<path class="st7" d="M627.81,196.56c2.24-0.36,2.76,2.49,3.16,4.48c0.51,2.54,0.81,4.91,1.38,7.83c0.44,2.28,0.89,4.83-1.38,5.26
				c-1.13,0.21-2.9-0.53-3.94-0.9c-2.33-0.81-4.5-1.99-6.41-3.24c-0.98-0.64-2.11-1.43-2.17-2.8c-0.1-2.22,2.93-4.34,4.24-5.71
				c0.86-0.9,1.61-1.73,2.37-2.57C625.84,198.03,626.71,196.73,627.81,196.56z M622.88,206.85c1.86,1.03,3.67,2.11,5.92,2.69
				c-0.49-2.5-0.77-5.24-1.38-7.61C625.95,203.62,624.28,205.08,622.88,206.85z"/>
		</g>
		<g>
			<path class="st7" d="M600.5,222.96c3.28-0.63,5.9,2.98,5.92,6.49c0.02,2.93-2.08,5.62-4.73,5.71c-2.98,0.09-6.79-3.63-5.32-7.95
				c0.22-0.65,0.66-0.71,0.99-1.23c0.35-0.56,0.43-1.23,0.69-1.57C598.61,223.7,599.21,223.21,600.5,222.96z M601.69,231.13
				c1.96-0.28,1.05-4.43-0.69-4.14C598.84,227.74,599.82,231.4,601.69,231.13z"/>
		</g>
		<g>
			<path class="st7" d="M190.45,306.22c0.69,0.36,1.66,0.49,2.47,0.9c2.99,1.5,6.84,5.63,7.79,9.51c0.71,2.91-0.52,5.6-2.96,5.71
				c-2.91,0.13-4.98-2.62-6.31-4.59c-1.58-2.34-2.56-4.91-3.65-7.5c-4.21,1.42-6.28,5.25-6.61,11.08c3.26,0.76,6.26,2.23,8.38,4.7
				c1.95,2.27,3.53,5.61,3.35,9.4c-0.17,3.63-2.98,6.21-6.41,4.59c-4.71-2.23-7.16-8.35-8.48-14.55c-3.09,0.59-6.73,2.79-7.2,6.27
				c-0.29,2.15,0.5,4.18-1.58,4.25c-1.65,0.06-2.1-1.99-1.97-4.14c0.35-5.91,5.35-9.33,10.35-10.41c0.35-8.07,3.51-12.95,9.07-15.11
				c-2.77-14.09,5.14-23.49,14-26.41c1.2-0.39,2.43,0.49,2.47,1.79c0.06,2.17-2.79,2.49-4.34,3.36
				C192.9,288.4,187.55,295.89,190.45,306.22z M197.35,318.2c-0.9-3.16-3.04-5.5-5.23-6.83
				C193.49,314.07,194.62,317.04,197.35,318.2z M181.88,326.03c0.6,3.13,1.75,5.92,3.35,7.95c0.88,1.11,2.13,2.3,3.75,2.46
				c0.91-2.77-0.29-5.48-1.68-7.27c-1.37-1.77-3.64-3.05-5.52-3.47C181.79,325.83,181.76,326.01,181.88,326.03z"/>
		</g>
		<g>
			<path class="st7" d="M564.91,285.18c2.74-0.37,6.06,2.44,5.23,6.38c-0.68,3.19-4.1,4.94-6.51,3.47
				C560.12,292.89,560.53,285.78,564.91,285.18z M564.91,289.32c-0.05,1.07-0.01,2.03,0.69,2.24
				C567.36,291.3,566.44,288.41,564.91,289.32z"/>
		</g>
		<g>
			<path class="st7" d="M568.66,342.48c0.93-0.2,2.09,0.19,2.17,1.68c0.08,1.57-1.44,2.4-2.37,3.36c-1.05,1.09-1.84,2.53-3.25,2.35
				c-0.73-0.09-1.39-0.66-1.48-1.68c-0.12-1.33,1.25-2.5,1.97-3.25C566.64,343.97,567.6,342.71,568.66,342.48z"/>
		</g>
		<g>
			<path class="st7" d="M165.9,347.4c1.5-3.73,8.7-1.56,9.27,2.01c0.43,2.73-1.51,5.06-2.86,6.04c-3.74,2.75-8.33-1.23-8.18-5.48
				C164.17,348.84,164.59,347.46,165.9,347.4z M167.68,349.87c-0.05,2.97,3.49,2.97,3.85,0.45
				C170.44,349.55,169.04,349.2,167.68,349.87z"/>
		</g>
		<g>
			<path class="st7" d="M567.38,355.8c1.88-0.55,5.27,0.05,7.59,0.22c2.22,0.17,5.64-0.08,5.82,2.13c0.27,3.34-4.55,1.98-7.1,1.79
				c-2.99-0.23-7.65,0.64-7.69-2.24C565.98,356.56,566.61,356.02,567.38,355.8z"/>
		</g>
		<g>
			<path class="st7" d="M563.53,367.43c1.74-0.55,2.13,1.08,3.35,2.13c0.83,0.71,1.99,1.27,2.07,2.35c0.08,1.1-0.67,2.16-1.58,2.24
				c-1.07,0.09-2.26-0.9-3.15-1.79C563.33,371.46,560.96,368.25,563.53,367.43z"/>
		</g>
		<g>
			<path class="st7" d="M241.43,441.18c0.69-0.18,2.44,0.31,2.96,1.01c0.38,0.51,0.37,1.37,0.59,2.24c0.82,3.2,2.19,6.44,3.35,10.18
				c0.6,1.93,1.54,5.19-0.59,6.04c-1.21,0.48-3.23-0.24-4.54-0.56c-2.89-0.71-5.78-1.42-8.28-2.46c-1.23-0.51-2.61-1.18-2.76-2.69
				c-0.16-1.55,0.92-2.6,1.87-3.92c1.64-2.26,3.22-4.16,4.73-6.6C239.44,443.33,240.28,441.47,241.43,441.18z M236.5,454.05
				c2.7,0.89,5.79,1.93,8.68,2.24c-1.14-3.22-2.08-6.67-3.35-9.74C240.27,449.3,238.17,451.44,236.5,454.05z"/>
		</g>
	</g>
</g>
<rect x="-46.71" y="-166.29" class="st0" width="38.57" height="41.43"/>
<rect x="11.86" y="-164.14" class="st10" width="38.57" height="41.43"/>
<rect x="74.71" y="-166.29" class="st8" width="38.57" height="41.43"/>
</svg>
