<?xml version="1.0" encoding="utf-8"?>
<!-- Generator: Adobe Illustrator 23.0.3, SVG Export Plug-In . SVG Version: 6.00 Build 0)  -->
<svg version="1.1" id="Layer_1" xmlns="http://www.w3.org/2000/svg" xmlns:xlink="http://www.w3.org/1999/xlink" x="0px" y="0px"
	 viewBox="0 0 792 612" style="enable-background:new 0 0 792 612;" xml:space="preserve">
<style type="text/css">
	.st0{fill:url(#SVGID_1_);}
	.st1{fill:url(#SVGID_2_);}
	.st2{fill:none;}
	.st3{fill:#FFFFFF;stroke:#3D3D3D;stroke-width:4;stroke-miterlimit:10;}
	.st4{fill:#00E77F;stroke:#000000;stroke-miterlimit:10;}
</style>
<linearGradient id="SVGID_1_" gradientUnits="userSpaceOnUse" x1="218.06" y1="331.335" x2="378.64" y2="331.335">
	<stop  offset="0.5744" style="stop-color:#00E77F"/>
	<stop  offset="0.7226" style="stop-color:#00E77F"/>
	<stop  offset="1" style="stop-color:#FFFFFF"/>
</linearGradient>
<path class="st0" d="M378.64,404.26v0.23c-37.67-36.88-160.58-72.17-160.58-72.17c105.46-13.48,160.18-74.14,160.18-74.14v0.32
	c-19.73,17.67-32.22,43.26-32.48,71.76c-0.01,0.31-0.01,0.63-0.01,0.94C345.75,360.28,358.46,386.39,378.64,404.26z"/>
<path d="M378.64,404.26c-20.18-17.87-32.89-43.98-32.89-73.06c0-0.31,0-0.63,0.01-0.94c0.26-28.5,12.75-54.09,32.48-71.76
	l0.04,15.99l0.05,16.7l0.11,39.07l0.11,41.33l0.05,16.64L378.64,404.26z"/>
<linearGradient id="SVGID_2_" gradientUnits="userSpaceOnUse" x1="345.75" y1="331.205" x2="540.96" y2="331.205">
	<stop  offset="0" style="stop-color:#FFFFFF"/>
	<stop  offset="0" style="stop-color:#00E77F"/>
</linearGradient>
<path class="st1" d="M540.96,331.2c0,53.91-43.7,97.61-97.61,97.61c-24.83,0-47.49-9.28-64.71-24.55
	c-20.18-17.87-32.89-43.98-32.89-73.06c0-0.31,0-0.63,0.01-0.94c0.26-28.5,12.75-54.09,32.48-71.76
	c17.27-15.49,40.09-24.9,65.11-24.9c53.6,0,97.1,43.19,97.6,96.66C540.96,330.57,540.96,330.89,540.96,331.2z"/>
<line class="st2" x1="321.29" y1="330.26" x2="612.38" y2="330.26"/>
<path d="M441.84,464.51L441.84,464.51z"/>
<path d="M441.84,202.18"/>
<path d="M622.66,329.58"/>
<path d="M332.93,329.58L332.93,329.58z"/>
<path class="st3" d="M518.19,343.88h10.13c-6.31,42.63-43.93,75.17-88.67,73.42c-44.17-1.73-80.22-37.2-82.61-81.33
	c-2.69-49.66,36.95-90.93,86.04-90.93c42.17,0,77.36,30.46,84.73,70.53c0.42,2.26-1.36,4.34-3.66,4.34h-0.06v0.02H408.02
	c-2.72,0-4.93-2.21-4.93-4.93l0,0c0-2.8,2.27-5.07,5.07-5.07h108.07c-9.51-32.65-40.32-56.3-76.32-54.82
	c-38.98,1.59-70.77,32.94-72.88,71.9c-2.37,43.89,32.66,80.37,76.06,80.37C480.77,407.37,512.14,379.86,518.19,343.88z"/>
<path class="st4" d="M378.24,258.18"/>
<path d="M614.95,330"/>
<path d="M378.24,258.18L378.24,258.18z"/>
<path d="M396.88,211.39"/>
</svg>
